<svg width="494" height="379" viewBox="0 0 494 379" fill="none" xmlns="http://www.w3.org/2000/svg">
<g clip-path="url(#clip0)">
<path d="M365.911 148.582C365.883 148.694 365.897 148.807 365.939 148.919C366.402 149.41 365.897 150.126 366.36 150.603V150.589C366.809 151.109 366.36 151.825 366.753 152.344C366.725 152.456 366.739 152.569 366.781 152.681C367.286 153.327 366.711 154.183 367.188 154.829C367.16 154.955 367.174 155.081 367.216 155.208C367.637 155.699 367.174 156.401 367.609 156.906L367.595 156.892C368.128 157.538 367.553 158.394 368.016 159.054C368.03 159.306 368.03 159.559 368.044 159.812C368.563 160.612 367.96 161.594 368.437 162.394C368.451 162.788 368.465 163.195 368.479 163.588C369.012 165.09 368.325 166.704 368.872 168.206L368.858 168.192C369.237 172.515 369.195 176.853 368.886 181.176C368.844 181.302 368.83 181.429 368.858 181.555C368.311 183.071 369.012 184.699 368.451 186.215C368.437 186.482 368.437 186.735 368.423 187.001C367.932 187.802 368.521 188.77 368.03 189.57C368.016 189.837 368.016 190.104 368.002 190.37C367.483 191.156 368.142 192.139 367.567 192.911L367.581 192.897C367.16 193.402 367.623 194.104 367.188 194.595C367.146 194.708 367.132 194.834 367.16 194.96C366.753 195.48 367.188 196.168 366.781 196.687C366.739 196.813 366.725 196.94 366.753 197.066C366.332 197.571 366.781 198.273 366.36 198.793C366.318 198.905 366.304 199.031 366.332 199.157C365.911 199.663 366.388 200.393 365.925 200.884V200.87C365.476 201.361 365.967 202.077 365.504 202.554V202.54C365.125 202.891 365.476 203.467 365.083 203.804V203.79C364.704 204.141 365.041 204.702 364.69 205.053C364.648 205.165 364.634 205.292 364.648 205.418C364.311 205.797 364.62 206.373 364.241 206.737C363.862 207.074 364.199 207.65 363.834 208.001C363.778 208.113 363.778 208.211 363.792 208.338C363.483 208.731 363.778 209.306 363.371 209.671L363.385 209.657C363.048 210.345 362.922 211.103 362.543 211.777V211.763C362.164 212.1 362.529 212.703 362.094 213.026L362.108 213.012C361.897 213.265 361.953 213.63 361.729 213.882V213.896C361.322 214.219 361.687 214.809 361.294 215.146V215.132C360.915 215.469 361.266 216.072 360.845 216.395L360.859 216.367C360.704 216.606 360.606 216.886 360.438 217.125C359.174 219.09 358.824 221.476 357.476 223.399C354.487 228.186 351.764 233.127 348.438 237.703C344.944 242.504 341.099 246.982 337.099 251.347C334.881 253.776 332.383 255.867 330.068 258.169C329.17 259.068 328.257 259.924 326.868 259.952C325.1 259.629 323.724 258.492 322.167 257.734C310.518 251.993 299.08 245.859 287.685 239.626C267.784 228.748 248.123 217.434 228.812 205.502C224.293 202.709 219.774 199.944 215.269 197.136C214.553 196.687 213.823 196.28 213.388 195.508C212.518 192.897 212.855 191.353 214.595 190.104C217.472 188.012 220.251 187.675 222.328 189.275C225.486 191.704 228.629 194.132 231.773 196.561C233.682 198.02 236.629 198.203 238.636 196.94C239.786 196.224 240.095 195.129 240.011 193.866C239.899 192.013 239.127 190.497 237.681 189.36C236.306 188.279 235.043 187.072 233.696 185.963C231.534 184.18 231.001 180.797 232.503 178.818C234.089 176.74 238.144 176.193 240.292 177.821C243.463 180.236 246.467 182.832 249.568 185.331C251.561 186.945 253.638 186.636 255.659 185.654C257.652 184.685 258.55 182.945 258.48 180.685C258.438 179.295 257.722 178.383 256.698 177.54C251.196 173.021 245.611 168.613 240.067 164.149C237.752 162.282 237.036 160.443 237.78 158.169C238.481 156.036 240.46 154.786 243.183 154.618C245.162 154.506 246.789 154.969 248.347 156.33C251.182 158.815 254.171 161.117 257.062 163.517C258.129 164.402 259.336 164.893 260.697 164.907C262.648 164.921 264.037 163.77 264.36 161.847C264.767 159.362 264.43 157.173 262.115 155.572C260.627 154.548 259.266 153.327 257.919 152.105C256.15 150.519 255.954 148.68 257.203 146.673C258.592 144.469 260.824 143.725 263.167 143.178C264.009 142.981 264.627 143.515 265.216 144.02C268.163 146.589 271.209 149.031 274.128 151.628C275.742 153.06 278.029 153.298 279.98 152.358C280.962 151.881 281.426 151.109 281.51 150.056C281.706 147.656 281.243 145.508 279.391 143.753C275.433 140.019 271.826 135.921 267.658 132.397C265.076 130.208 264.585 128.018 265.806 125.561C267.027 123.119 270.044 121.799 272.949 122.417C273.819 122.599 274.479 123.091 275.012 123.765C275.784 124.761 276.612 125.702 277.44 126.656C279.517 129.071 282.282 129.183 284.541 126.965C285.243 126.277 285.776 125.477 286.267 124.607C286.983 123.329 286.829 122.291 285.776 121.224C283.404 118.852 280.822 116.718 278.38 114.416C276.387 112.535 276.065 111.412 277.257 108.717C278.254 106.471 280.106 105.404 282.422 105.671C284.85 105.952 286.787 107.243 288.344 108.955C290.842 111.721 293.888 111.426 296.849 110.5C300.722 109.278 301.705 103.804 298.645 101.067C296.358 99.0313 294 97.0661 291.614 95.115C289.046 93.0094 288.723 92.0128 289.607 89.5844C290.814 86.2436 292.274 85.1206 295.319 84.9943C297.186 84.9241 298.912 85.3873 300.61 86.0891C301.873 86.6226 303.15 86.7629 304.498 86.5524C309.003 85.8505 310.504 83.1273 308.82 78.8881C308.483 78.0319 307.375 77.2177 308.385 76.1229C308.708 76.1229 309.045 76.0667 309.283 76.3474L309.269 76.3334C309.704 76.6001 310.153 76.8387 310.546 77.1616C310.771 77.4002 311.178 77.33 311.388 77.5967L311.374 77.5827C311.613 77.8073 312.02 77.7371 312.216 78.0179L312.202 78.0038C312.637 78.2705 313.087 78.5092 313.479 78.832H313.465C313.704 79.0706 314.097 78.9864 314.307 79.2671L314.293 79.2531C314.462 79.3654 314.588 79.5198 314.743 79.6461L314.757 79.6602C314.967 79.9129 315.374 79.8286 315.571 80.1094L315.557 80.0953C315.795 80.3199 316.188 80.2357 316.399 80.5305L316.385 80.5164C316.553 80.6287 316.693 80.7691 316.82 80.9235C317.044 81.1621 317.451 81.0779 317.648 81.3727L317.634 81.3587C317.802 81.471 317.942 81.6113 318.069 81.7657C318.307 82.0044 318.7 81.9201 318.897 82.2009L318.883 82.1869C319.051 82.2992 319.191 82.4395 319.318 82.5939C319.725 82.8887 320.188 83.0993 320.567 83.4362C320.988 83.7169 321.451 83.9274 321.83 84.2784V84.2643C321.998 84.3766 322.124 84.517 322.265 84.6714L322.279 84.6854C322.686 84.9943 323.149 85.1908 323.528 85.5277V85.5136C323.682 85.64 323.823 85.7663 323.963 85.9067L323.977 85.9207C324.356 86.2436 324.847 86.426 325.212 86.777V86.7629C325.366 86.8893 325.507 87.0156 325.647 87.156L325.661 87.17C326.04 87.4928 326.531 87.6753 326.882 88.0403L326.868 88.0263C327.05 88.1386 327.191 88.2789 327.303 88.4474L327.289 88.4333C327.457 88.5456 327.598 88.686 327.724 88.8404H327.738C327.878 88.9667 328.019 89.0931 328.159 89.2054L328.201 89.2334C328.735 89.6686 329.282 90.0897 329.829 90.5248V90.5108C329.998 90.6231 330.138 90.7635 330.264 90.9179C330.405 91.0442 330.545 91.1846 330.685 91.325L330.699 91.339C331.471 91.8163 332.047 92.5181 332.776 93.0375L332.762 93.0234C332.931 93.1357 333.085 93.2761 333.197 93.4586L333.183 93.4446C333.352 93.5569 333.492 93.6972 333.618 93.8797L333.604 93.8657C333.773 93.978 333.913 94.1183 334.039 94.3008L334.025 94.2868C334.194 94.3991 334.334 94.5394 334.46 94.7079L334.446 94.6938C334.615 94.8061 334.755 94.9465 334.881 95.115C335.036 95.2413 335.176 95.3817 335.303 95.5361C335.457 95.6624 335.597 95.8028 335.724 95.9572C335.878 96.0835 336.018 96.2239 336.145 96.3783C336.299 96.5046 336.439 96.645 336.566 96.7994C336.72 96.9257 336.874 97.0661 336.987 97.2345L336.973 97.2205C337.141 97.3328 337.281 97.4872 337.394 97.6416L337.38 97.6276C337.548 97.7399 337.688 97.8803 337.801 98.0487L337.787 98.0347C337.955 98.147 338.095 98.2873 338.208 98.4698L338.194 98.4558C338.362 98.5681 338.502 98.7084 338.615 98.8909L338.6 98.8769C338.951 99.3822 339.386 99.7893 339.864 100.154L339.85 100.14C340.285 100.688 340.748 101.207 341.141 101.797L341.155 101.811C341.295 101.951 341.435 102.077 341.562 102.246C341.73 102.372 341.87 102.512 341.983 102.667C342.151 102.793 342.291 102.934 342.404 103.102L342.39 103.088C342.741 103.453 342.909 103.944 343.26 104.309L343.274 104.337C343.4 104.478 343.541 104.618 343.667 104.758C343.821 104.885 343.962 105.025 344.074 105.194L344.06 105.18C344.228 105.292 344.369 105.432 344.495 105.601L344.481 105.587C344.832 105.952 345.028 106.429 345.337 106.836L345.351 106.85C345.491 106.99 345.646 107.117 345.758 107.285L345.744 107.271C346.165 107.833 346.656 108.338 347.021 108.941C347.175 109.068 347.33 109.208 347.442 109.377L347.428 109.363C347.723 109.559 347.624 109.966 347.877 110.177L347.891 110.191C348.031 110.331 348.186 110.457 348.298 110.626L348.284 110.612C348.635 110.977 348.831 111.454 349.14 111.847L349.154 111.861C349.294 112.002 349.449 112.128 349.547 112.296L349.533 112.282C349.814 112.479 349.73 112.886 349.982 113.11V113.124C350.291 113.518 350.515 113.981 350.81 114.388C350.965 114.514 351.119 114.655 351.217 114.823L351.203 114.809C351.498 115.005 351.4 115.413 351.652 115.623V115.637C351.961 116.044 352.2 116.479 352.466 116.9V116.886C352.747 117.097 352.649 117.49 352.901 117.715V117.729C353.21 118.122 353.435 118.585 353.729 118.992C354.248 119.638 354.501 120.438 354.978 121.098L354.964 121.083C355.245 121.294 355.175 121.687 355.399 121.926L355.385 121.912C355.666 122.122 355.596 122.515 355.82 122.754C356.578 123.765 356.999 124.958 357.518 126.095V126.109C357.757 126.333 357.687 126.712 357.939 126.937C358.08 127.077 358.234 127.218 358.332 127.386L358.318 127.372C358.753 127.681 358.375 128.284 358.782 128.607V128.621C359.02 128.86 358.95 129.239 359.189 129.464C359.455 129.688 359.385 130.067 359.596 130.32L359.581 130.306C360.002 130.615 359.624 131.218 360.031 131.541L360.045 131.555C360.269 131.794 360.199 132.173 360.438 132.397C360.69 132.622 360.62 133.015 360.859 133.24V133.226C361.125 133.478 361.069 133.857 361.266 134.152C361.252 134.264 361.266 134.377 361.322 134.489C361.546 134.727 361.476 135.106 361.701 135.345L361.687 135.331C362.094 135.668 361.757 136.258 362.122 136.594L362.108 136.58C362.515 136.903 362.15 137.507 362.543 137.844C362.795 138.082 362.725 138.461 362.936 138.714L362.922 138.7C363.343 139.023 362.992 139.626 363.371 139.963V139.949C363.764 140.286 363.427 140.876 363.792 141.227L363.778 141.213C364.171 141.578 363.862 142.153 364.185 142.546C364.171 142.672 364.185 142.785 364.227 142.897C364.578 143.248 364.255 143.823 364.62 144.16V144.146C365.097 144.624 364.578 145.339 365.055 145.817C365.293 146.069 365.251 146.462 365.434 146.743C365.406 146.855 365.42 146.968 365.462 147.08C365.883 147.613 365.588 148.189 365.911 148.582Z" fill="#88CCFD"/>
<path d="M213.823 195.452C215.423 196.813 217.29 197.754 219.058 198.863C223.535 201.684 228.04 204.449 232.559 207.215C236.966 209.896 241.386 212.549 245.807 215.174C250.41 217.911 255.028 220.648 259.673 223.329C263.294 225.421 266.942 227.442 270.591 229.492C274.661 231.78 278.717 234.096 282.773 236.37C284.415 237.296 286.071 238.18 287.727 239.065C292.456 241.591 297.214 244.09 301.929 246.645C308.975 250.463 316.09 254.141 323.247 257.734C324.482 258.352 325.647 259.138 326.966 259.573C327.472 259.924 328.145 259.713 328.664 260.064C338.39 264.977 348.158 269.792 357.996 274.466C370.542 280.418 383.117 286.327 395.789 292.012C408.21 297.585 420.616 303.186 433.232 308.324C442.214 311.987 451.238 315.581 460.753 317.742C462.395 318.121 464.065 318.346 465.735 318.304C468.486 318.248 469.258 316.928 468.009 314.486C466.746 312.029 464.851 310.064 462.971 308.099C454.564 299.368 445.119 291.844 435.618 284.39C417.36 270.087 398.498 256.625 379.538 243.276C372.451 238.293 365.321 233.38 358.15 228.551C357.294 227.976 356.269 227.554 356.003 226.375C356.059 225.154 356.817 224.2 357.224 223.105C358.066 221.476 358.782 219.806 359.343 218.051C359.525 217.49 359.652 216.816 360.466 216.788C360.732 216.788 360.788 217.055 360.957 217.181L360.971 217.195C361.153 217.476 361.574 217.378 361.757 217.672L361.729 217.644C361.911 217.757 362.037 217.911 362.178 218.037C362.388 218.29 362.809 218.206 363.006 218.501L362.978 218.472C363.146 218.571 363.286 218.739 363.427 218.865H363.441C363.651 219.132 364.058 219.034 364.255 219.329L364.227 219.301C364.409 219.399 364.536 219.553 364.676 219.708C364.9 219.96 365.307 219.876 365.504 220.171L365.476 220.143C365.658 220.241 365.785 220.396 365.939 220.536C366.149 220.803 366.57 220.704 366.753 221.013L366.725 220.985C366.907 221.083 367.048 221.238 367.188 221.392H367.174C367.398 221.631 367.82 221.547 368.002 221.855L367.974 221.827C368.156 221.926 368.297 222.08 368.423 222.234L368.409 222.22C368.549 222.347 368.69 222.473 368.858 222.585L368.9 222.613C369.069 222.922 369.49 222.81 369.672 223.091L369.658 223.077C369.897 223.301 370.304 223.217 370.5 223.526L370.472 223.498C370.654 223.596 370.795 223.75 370.921 223.919L370.907 223.905C371.061 224.017 371.188 224.171 371.356 224.284L371.384 224.298C371.581 224.579 371.988 224.48 372.184 224.761L372.17 224.747C372.338 224.845 372.465 225.014 372.633 225.112L372.661 225.14C372.844 225.435 373.265 225.323 373.447 225.617L373.419 225.589C373.602 225.687 373.728 225.842 373.868 225.982C374.093 226.235 374.5 226.151 374.696 226.445L374.668 226.417C374.851 226.516 374.977 226.67 375.131 226.81C375.342 227.063 375.763 226.979 375.945 227.274L375.917 227.246C376.1 227.344 376.24 227.498 376.366 227.667H376.352C376.591 227.891 376.998 227.821 377.194 228.116L377.166 228.088C377.349 228.186 377.489 228.34 377.615 228.509L377.601 228.495C377.742 228.621 377.896 228.748 378.05 228.86L378.092 228.888C378.261 229.197 378.682 229.084 378.864 229.365L378.85 229.337C379.019 229.435 379.145 229.604 379.313 229.702L379.341 229.716C379.524 229.997 379.945 229.899 380.127 230.193L380.099 230.165C380.268 230.278 380.408 230.432 380.548 230.558H380.562C380.773 230.825 381.194 230.727 381.376 231.036L381.348 231.008C381.531 231.106 381.657 231.26 381.811 231.401H381.826C382.036 231.667 382.457 231.569 382.639 231.878L382.611 231.85C382.794 231.948 382.934 232.102 383.061 232.271L383.046 232.257C383.201 232.369 383.327 232.524 383.496 232.636L383.524 232.65C383.72 232.931 384.127 232.832 384.324 233.099L384.31 233.085C384.45 233.211 384.604 233.338 384.759 233.464L384.787 233.478C384.969 233.759 385.39 233.661 385.573 233.955L385.545 233.927C385.727 234.025 385.853 234.18 385.994 234.334C386.218 234.573 386.625 234.489 386.822 234.798L386.794 234.769C386.976 234.868 387.116 235.022 387.243 235.177C387.383 235.303 387.523 235.429 387.678 235.541L387.72 235.57C387.888 235.864 388.309 235.766 388.506 236.033L388.492 236.019C388.632 236.145 388.786 236.257 388.941 236.37L388.983 236.398C389.151 236.707 389.572 236.594 389.755 236.875L389.741 236.847C389.923 236.959 390.05 237.114 390.19 237.254C390.414 237.507 390.821 237.408 391.004 237.717L390.976 237.689C391.158 237.787 391.299 237.942 391.425 238.096C391.832 238.405 392.309 238.602 392.674 238.967L392.66 238.938C392.828 239.051 392.955 239.205 393.109 239.331L393.123 239.346C393.319 239.612 393.74 239.514 393.937 239.809L393.909 239.781C394.091 239.893 394.218 240.047 394.358 240.188C394.751 240.511 395.242 240.693 395.607 241.058L395.593 241.044C395.747 241.17 395.888 241.297 396.042 241.409L396.07 241.437C396.253 241.732 396.674 241.62 396.856 241.914L396.828 241.886C397.01 241.999 397.137 242.153 397.277 242.307C397.684 242.616 398.161 242.827 398.54 243.164L398.526 243.15C398.68 243.262 398.807 243.416 398.975 243.529L399.003 243.543C399.2 243.823 399.621 243.725 399.789 244.02L399.761 243.992C399.944 244.09 400.084 244.244 400.21 244.399C400.435 244.637 400.842 244.553 401.038 244.862L401.01 244.834C401.193 244.932 401.333 245.087 401.459 245.255L401.445 245.241C401.6 245.353 401.74 245.508 401.894 245.634H401.908C402.119 245.901 402.526 245.803 402.722 246.097L402.708 246.069C402.877 246.182 403.017 246.336 403.157 246.462C403.368 246.729 403.789 246.631 403.971 246.94L403.943 246.911C404.14 247.01 404.28 247.164 404.392 247.347L404.378 247.333C404.547 247.431 404.687 247.599 404.827 247.726H404.841C405.052 247.992 405.459 247.894 405.655 248.189L405.627 248.161C405.81 248.273 405.95 248.413 406.076 248.582L406.062 248.568C406.203 248.694 406.357 248.821 406.497 248.947L406.526 248.975C406.708 249.27 407.129 249.157 407.311 249.452L407.297 249.424C407.466 249.522 407.592 249.691 407.761 249.803L407.775 249.817C407.971 250.084 408.392 249.986 408.575 250.294L408.546 250.266C408.729 250.365 408.869 250.519 408.996 250.701L408.982 250.687C409.15 250.8 409.276 250.954 409.431 251.066L409.445 251.08C409.641 251.347 410.062 251.249 410.245 251.544L410.216 251.516C410.399 251.628 410.539 251.768 410.666 251.937L410.652 251.923C410.792 252.049 410.946 252.175 411.101 252.302L411.129 252.316C411.311 252.611 411.732 252.498 411.915 252.793L411.901 252.765C412.069 252.877 412.209 253.032 412.35 253.172C412.56 253.425 412.981 253.34 413.164 253.649L413.136 253.621C413.332 253.719 413.472 253.874 413.585 254.042L413.571 254.028C413.739 254.141 413.879 254.295 414.02 254.421H414.034C414.244 254.688 414.665 254.59 414.848 254.885L414.82 254.856C415.002 254.955 415.142 255.109 415.269 255.278L415.255 255.264C415.423 255.376 415.549 255.53 415.704 255.657L415.718 255.671C415.914 255.937 416.335 255.839 416.518 256.148L416.49 256.12C416.672 256.218 416.813 256.372 416.939 256.527L416.925 256.513C417.065 256.639 417.22 256.765 417.36 256.892L417.388 256.906C417.57 257.187 417.991 257.088 418.174 257.383L418.146 257.355C418.328 257.453 418.469 257.608 418.595 257.776L418.581 257.762C419.002 258.043 419.479 258.253 419.844 258.618L419.83 258.59C420.012 258.703 420.153 258.857 420.279 259.011L420.265 258.997C420.419 259.11 420.546 259.264 420.714 259.376L420.728 259.39C420.925 259.671 421.346 259.573 421.528 259.868L421.5 259.84C421.682 259.952 421.809 260.106 421.949 260.247H421.935C422.075 260.387 422.216 260.499 422.37 260.626L422.398 260.654C422.581 260.949 423.002 260.836 423.17 261.145L423.142 261.117C423.324 261.215 423.465 261.37 423.591 261.524H423.577C423.984 261.833 424.475 262.015 424.826 262.408L424.812 262.38C424.994 262.479 425.135 262.633 425.261 262.801L425.247 262.787C425.401 262.9 425.542 263.054 425.696 263.18L425.71 263.194C425.907 263.475 426.328 263.363 426.51 263.672L426.482 263.644C426.664 263.742 426.805 263.896 426.931 264.065L426.917 264.051C427.071 264.163 427.212 264.317 427.366 264.458H427.38C427.492 264.598 427.633 264.71 427.773 264.809C427.857 264.879 427.956 264.921 428.082 264.907C428.306 264.977 428.489 265.132 428.615 265.314L428.601 265.3C428.77 265.412 428.896 265.567 429.05 265.693L429.064 265.707C429.429 266.058 429.934 266.212 430.285 266.591L430.271 266.563C430.454 266.662 430.58 266.816 430.72 266.97C430.847 267.111 430.987 267.223 431.155 267.321L431.212 267.363C431.366 267.672 431.801 267.56 431.969 267.855L431.941 267.827C432.124 267.925 432.264 268.079 432.39 268.248L432.376 268.234C432.545 268.346 432.671 268.5 432.825 268.627H432.839C433.05 268.893 433.471 268.795 433.639 269.104L433.611 269.076C433.794 269.174 433.948 269.329 434.06 269.497L434.046 269.483C434.215 269.595 434.355 269.75 434.495 269.904C434.636 270.045 434.776 270.171 434.931 270.297L434.959 270.311C435.155 270.592 435.576 270.494 435.759 270.788L435.73 270.76C435.913 270.873 436.053 271.013 436.18 271.182L436.166 271.167C436.32 271.294 436.46 271.434 436.601 271.561L436.615 271.575C436.994 271.925 437.485 272.094 437.85 272.459L437.836 272.431C438.004 272.543 438.144 272.698 438.285 272.838C438.425 272.978 438.565 273.105 438.72 273.217L438.748 273.245C438.93 273.54 439.365 273.427 439.52 273.736L439.492 273.708C439.688 273.806 439.828 273.961 439.941 274.129L439.927 274.115C440.095 274.228 440.235 274.382 440.376 274.522C440.502 274.663 440.656 274.789 440.811 274.887L440.853 274.915C441.176 275.308 441.695 275.435 442.046 275.814L442.032 275.786C442.2 275.898 442.341 276.052 442.481 276.193C442.607 276.333 442.748 276.445 442.916 276.558L442.958 276.586C443.126 276.895 443.562 276.768 443.716 277.077L443.688 277.049C443.87 277.161 444.025 277.302 444.137 277.484L444.123 277.47C444.305 277.568 444.432 277.723 444.572 277.877C444.965 278.2 445.47 278.368 445.807 278.762L445.793 278.733C445.975 278.832 446.13 278.986 446.242 279.169L446.228 279.155C446.41 279.267 446.551 279.407 446.677 279.59L446.663 279.576C447.281 279.927 447.8 280.418 448.347 280.867L448.333 280.839C448.516 280.951 448.656 281.092 448.782 281.274L448.768 281.26C448.937 281.372 449.077 281.527 449.217 281.681L449.203 281.667C449.344 281.794 449.498 281.92 449.652 282.032L449.694 282.06C449.863 282.369 450.298 282.243 450.452 282.552L450.424 282.523C450.607 282.622 450.761 282.776 450.873 282.959L450.859 282.931C451.042 283.029 451.182 283.183 451.308 283.366L451.294 283.352C451.463 283.464 451.603 283.618 451.743 283.759C452.122 284.096 452.628 284.25 452.964 284.657L452.95 284.629C453.133 284.727 453.287 284.882 453.399 285.064L453.385 285.036C453.568 285.148 453.708 285.289 453.834 285.471L453.82 285.457C453.989 285.555 454.115 285.724 454.27 285.85L454.284 285.864C455.027 286.37 455.617 287.057 456.347 287.577L456.333 287.563C456.501 287.675 456.641 287.829 456.782 287.97C456.922 288.11 457.062 288.251 457.203 288.377C457.764 288.798 458.311 289.233 458.845 289.682L458.831 289.654C459.013 289.753 459.153 289.907 459.28 290.089L459.266 290.075C459.434 290.188 459.588 290.342 459.701 290.511L459.687 290.496C459.855 290.609 459.995 290.763 460.136 290.904C460.276 291.044 460.416 291.17 460.557 291.297L460.571 291.311C460.683 291.451 460.823 291.577 460.978 291.69L461.02 291.718C461.188 292.012 461.623 291.9 461.778 292.209L461.75 292.181C461.946 292.279 462.086 292.434 462.185 292.616L462.171 292.588C462.353 292.686 462.508 292.841 462.62 293.023L462.606 293.009C462.788 293.121 462.929 293.262 463.055 293.43L463.041 293.416C463.209 293.528 463.35 293.683 463.49 293.823C463.63 293.964 463.771 294.09 463.911 294.216L463.925 294.23C464.655 294.75 465.272 295.409 465.974 295.957L465.96 295.929C466.142 296.041 466.283 296.181 466.409 296.364L466.395 296.35C466.577 296.462 466.718 296.617 466.83 296.785L466.816 296.771C466.984 296.883 467.139 297.038 467.251 297.206L467.237 297.192C467.405 297.304 467.56 297.459 467.672 297.627L467.658 297.613C467.826 297.726 467.967 297.88 468.107 298.034C468.261 298.161 468.388 298.315 468.542 298.441L468.556 298.455C468.683 298.596 468.823 298.736 468.963 298.863L468.977 298.877C470.507 299.986 471.63 301.558 473.131 302.709L473.117 302.681C473.3 302.793 473.44 302.933 473.552 303.116L473.538 303.102C473.721 303.214 473.861 303.354 473.973 303.537L473.959 303.523C474.142 303.635 474.282 303.776 474.394 303.958L474.38 303.944C474.563 304.056 474.717 304.197 474.815 304.379L474.801 304.365C474.984 304.477 475.138 304.618 475.25 304.8L475.236 304.786C475.419 304.898 475.559 305.039 475.671 305.221L475.657 305.207C475.826 305.32 475.98 305.474 476.093 305.642L476.078 305.628C476.261 305.741 476.401 305.895 476.514 306.064L476.5 306.05C476.682 306.162 476.822 306.302 476.935 306.499L476.907 306.485C477.173 306.793 477.454 307.088 477.777 307.341L477.763 307.313C477.945 307.425 478.085 307.565 478.198 307.748L478.184 307.734C478.366 307.846 478.506 307.987 478.619 308.183L478.591 308.169C479.362 309.222 480.443 309.98 481.159 311.075C481.299 311.215 481.439 311.356 481.58 311.51L481.566 311.496C481.72 311.636 481.875 311.763 481.987 311.945L481.973 311.931C482.155 312.043 482.296 312.198 482.408 312.366L482.394 312.352C482.562 312.464 482.717 312.619 482.829 312.787L482.815 312.773C482.997 312.886 483.138 313.026 483.25 313.222L483.222 313.194C483.531 313.349 483.418 313.798 483.713 313.952L483.741 313.994C483.839 314.149 483.966 314.289 484.106 314.416C484.246 314.556 484.387 314.696 484.513 314.851C484.667 314.991 484.808 315.131 484.934 315.286L484.92 315.272C485.088 315.398 485.243 315.539 485.341 315.721L485.313 315.707C485.692 316.058 485.874 316.563 486.197 316.956C486.337 317.097 486.492 317.237 486.604 317.405L486.59 317.391C486.772 317.504 486.913 317.644 487.025 317.841L486.997 317.827C487.39 318.178 487.572 318.669 487.881 319.076L487.867 319.062C488.218 319.441 488.414 319.918 488.723 320.311C488.864 320.452 489.032 320.592 489.13 320.774L489.102 320.76C489.481 321.125 489.692 321.603 489.972 322.024L489.958 322.01C490.239 322.22 490.155 322.613 490.407 322.838C490.548 322.978 490.702 323.119 490.8 323.301L490.772 323.273C491.081 323.469 491.011 323.877 491.207 324.129L491.193 324.101C491.488 324.298 491.404 324.705 491.656 324.929V324.915C491.909 325.126 491.825 325.533 492.091 325.743C492.316 325.982 492.26 326.361 492.484 326.6L492.47 326.586C492.737 326.81 492.681 327.203 492.877 327.456L492.863 327.428C493.298 327.751 492.947 328.354 493.298 328.705L493.284 328.677C493.789 329.154 493.284 329.884 493.719 330.376L493.705 330.362C494.098 331.471 494.056 332.594 493.733 333.702C493.34 334.039 493.677 334.615 493.312 334.966C493.06 335.19 493.144 335.583 492.877 335.794L492.891 335.78C492.47 336.482 491.937 337.071 491.193 337.45L491.207 337.436C490.477 338.082 489.565 338.363 488.681 338.7L488.695 338.686C488.232 339.205 487.488 338.686 487.011 339.121L487.025 339.107C482.843 340.23 478.661 339.542 474.479 339.093L474.493 339.107C473.707 338.615 472.738 339.261 471.952 338.686L471.966 338.7C471.195 338.18 470.198 338.854 469.44 338.265L469.454 338.279C468.809 337.815 467.967 338.405 467.335 337.857L467.349 337.871C466.718 337.394 465.862 337.998 465.244 337.436L465.258 337.45C464.767 337.029 464.037 337.521 463.56 337.029L463.574 337.043C463.083 336.622 462.367 337.099 461.876 336.622L461.89 336.636C461.399 336.201 460.683 336.678 460.206 336.215C459.729 335.766 458.999 336.271 458.522 335.78L458.536 335.794C458.059 335.345 457.315 335.864 456.852 335.359L456.866 335.373C455.897 335.05 454.873 334.924 453.919 334.531H453.933C453.582 334.166 453.006 334.503 452.67 334.124C452.192 333.66 451.463 334.18 451 333.674L451.014 333.688C450.663 333.338 450.073 333.674 449.736 333.267L449.751 333.281C448.782 332.944 447.758 332.818 446.803 332.425L446.817 332.439C446.467 332.088 445.877 332.439 445.54 332.004L445.554 332.018C445.203 331.667 444.614 332.004 444.277 331.597L444.291 331.611C443.94 331.246 443.351 331.597 443.028 331.176L443.042 331.19C442.691 330.839 442.102 331.176 441.765 330.769L441.779 330.783C441.428 330.432 440.839 330.769 440.502 330.348L440.516 330.362C440.165 330.011 439.576 330.348 439.239 329.927L439.253 329.941C438.902 329.59 438.313 329.941 437.976 329.505L437.99 329.519C437.639 329.169 437.05 329.519 436.713 329.084L436.727 329.098C436.376 328.747 435.773 329.098 435.45 328.663L435.464 328.677C434.762 328.368 434.018 328.214 433.345 327.863C433.008 327.484 432.418 327.835 432.082 327.428H432.096C431.759 327.049 431.155 327.414 430.833 326.979L430.847 326.993C430.496 326.642 429.892 326.993 429.569 326.558L429.584 326.572C429.331 326.375 428.952 326.431 428.713 326.165H428.727C428.391 325.8 427.787 326.151 427.464 325.729L427.478 325.743C427.128 325.379 426.524 325.743 426.215 325.294L426.229 325.308C425.542 325 424.77 324.873 424.11 324.466L424.124 324.48C423.773 324.129 423.17 324.48 422.861 324.045L422.875 324.059C422.623 323.862 422.23 323.919 422.005 323.652H422.019C421.682 323.287 421.079 323.638 420.756 323.217L420.77 323.231C420.082 322.894 419.311 322.796 418.665 322.375L418.679 322.389C417.991 322.066 417.22 321.939 416.56 321.546L416.574 321.56C415.9 321.209 415.128 321.111 414.469 320.704L414.483 320.718C414.132 320.353 413.529 320.718 413.22 320.269L413.234 320.283C412.967 320.087 412.588 320.157 412.364 319.862L412.378 319.876C412.027 319.525 411.423 319.876 411.115 319.427L411.129 319.441C410.876 319.244 410.483 319.314 410.273 319.02L410.287 319.034C409.936 318.683 409.332 319.034 409.024 318.585L409.038 318.599C408.771 318.402 408.392 318.472 408.182 318.178L408.196 318.192C407.943 317.981 407.564 318.051 407.325 317.784C406.989 317.405 406.385 317.77 406.076 317.335L406.09 317.349C405.838 317.153 405.445 317.209 405.234 316.928L405.248 316.942C404.898 316.577 404.294 316.942 403.985 316.493L403.999 316.507C403.747 316.311 403.354 316.381 403.143 316.086L403.157 316.1C402.47 315.777 401.698 315.679 401.052 315.244L401.066 315.258C400.814 315.061 400.421 315.117 400.21 314.837L400.224 314.851C399.551 314.514 398.765 314.43 398.119 313.994L398.133 314.009C397.881 313.812 397.502 313.868 397.263 313.601H397.277C397.038 313.377 396.66 313.433 396.421 313.194C396.098 312.801 395.495 313.18 395.186 312.731L395.2 312.745C394.947 312.535 394.554 312.605 394.344 312.324L394.358 312.338C394.105 312.128 393.726 312.184 393.502 311.931C391.299 310.906 389.095 309.882 386.878 308.885C384.787 307.944 382.668 307.06 380.576 306.092C375.903 303.944 371.244 301.712 366.556 299.592C359.96 296.603 353.491 293.346 346.951 290.216C340.285 287.029 333.703 283.674 327.107 280.39C322.181 277.933 317.325 275.365 312.427 272.852C311.809 272.543 311.234 272.094 310.504 272.108C308.231 271.799 306.392 270.466 304.47 269.427C297.396 265.623 290.295 261.889 283.25 258.057C271.784 251.81 260.403 245.438 249.049 238.995C233.134 229.955 217.416 220.62 201.74 211.187C199.705 209.966 197.74 208.632 195.649 207.495C183.594 200.056 171.553 192.574 159.638 184.91C150.951 179.323 142.334 173.624 133.689 167.967C133.226 167.658 132.748 167.35 132.44 166.872C132.159 166.339 131.668 166.03 131.219 165.651L131.233 165.665C130.798 165.398 130.335 165.174 129.956 164.823L129.97 164.837C129.535 164.556 129.072 164.346 128.707 163.981L128.721 163.995C128.286 163.728 127.823 163.503 127.444 163.152L127.458 163.167C127.023 162.9 126.559 162.675 126.181 162.31L126.195 162.324C125.759 162.058 125.296 161.833 124.931 161.468L124.946 161.496C124.763 161.398 124.623 161.243 124.496 161.075H124.51C124.272 160.836 123.865 160.921 123.668 160.626L123.682 160.654C123.5 160.556 123.374 160.401 123.233 160.247C122.826 159.938 122.349 159.741 121.984 159.391L121.998 159.405C121.76 159.18 121.353 159.264 121.156 158.955L121.184 158.983C121.002 158.885 120.862 158.731 120.735 158.562H120.749C120.328 158.268 119.865 158.057 119.486 157.706L119.5 157.72C119.065 157.453 118.602 157.229 118.223 156.864L118.237 156.892C118.069 156.78 117.928 156.625 117.788 156.499C117.578 156.246 117.157 156.33 116.974 156.036L116.988 156.05C116.553 155.783 116.076 155.572 115.711 155.193L115.725 155.222C115.543 155.123 115.402 154.969 115.276 154.814C115.051 154.576 114.63 154.66 114.448 154.351L114.462 154.379C114.28 154.281 114.139 154.127 114.013 153.958H114.027C113.606 153.663 113.129 153.467 112.764 153.088L112.778 153.102C112.343 152.835 111.88 152.611 111.501 152.246L111.515 152.26C111.08 151.993 110.603 151.782 110.252 151.389L110.266 151.418C110.083 151.319 109.943 151.165 109.817 151.01H109.831C109.41 150.716 108.947 150.505 108.568 150.154L108.582 150.168C108.161 149.887 107.684 149.677 107.319 149.312L107.333 149.34C107.164 149.228 107.024 149.073 106.884 148.947C106.673 148.694 106.252 148.779 106.07 148.484L106.084 148.512C105.901 148.414 105.761 148.259 105.635 148.091H105.649C105.41 147.866 105.003 147.95 104.807 147.642L104.835 147.67C104.652 147.571 104.512 147.417 104.386 147.249L104.4 147.263C103.979 146.968 103.501 146.771 103.137 146.392L103.151 146.406C102.701 146.154 102.238 145.929 101.873 145.55L101.888 145.578C101.705 145.48 101.565 145.325 101.438 145.157H101.452C101.031 144.862 100.554 144.652 100.189 144.301L100.203 144.315C100.035 144.202 99.9087 144.048 99.7543 143.922L99.7403 143.908C99.5438 143.641 99.1228 143.739 98.9403 143.43L98.9684 143.459C98.786 143.36 98.6456 143.206 98.5193 143.037L98.5334 143.051C98.1123 142.771 97.6352 142.56 97.2703 142.195L97.2843 142.209C96.6528 141.872 96.1756 141.353 95.5862 140.96C95.1792 140.651 94.7021 140.455 94.3372 140.09L94.3512 140.118C94.1688 140.005 94.0425 139.851 93.9021 139.697C93.6776 139.458 93.2706 139.542 93.0741 139.233L93.1022 139.261C92.9197 139.163 92.7794 139.009 92.6531 138.84H92.6671C92.2601 138.546 91.7689 138.349 91.4181 137.97L91.4321 137.998C91.2497 137.9 91.1234 137.745 90.969 137.605C90.7585 137.352 90.3375 137.451 90.155 137.128L90.1831 137.156C90.0006 137.058 89.8603 136.903 89.734 136.735L89.748 136.749C89.5796 136.637 89.4393 136.482 89.2989 136.342C89.0744 136.089 88.6674 136.173 88.4709 135.879L88.499 135.907C88.3165 135.794 88.1762 135.654 88.0499 135.485H88.0639C87.6569 135.191 87.1657 134.994 86.8149 134.615L86.8289 134.629C86.1834 134.32 85.6922 133.787 85.1308 133.366L85.1448 133.394C84.9624 133.282 84.8361 133.127 84.6958 132.987C84.4712 132.748 84.0642 132.832 83.8677 132.524L83.8818 132.552C83.6993 132.453 83.559 132.299 83.4327 132.131L83.4467 132.145C82.8292 131.794 82.338 131.288 81.7626 130.881L81.7767 130.895C81.3556 130.601 80.8785 130.404 80.5276 130.025L80.5417 130.053C80.3592 129.955 80.2189 129.8 80.0926 129.632L80.1066 129.646C79.6856 129.351 79.2084 129.155 78.8435 128.776L78.8576 128.804C78.6751 128.706 78.5348 128.551 78.4085 128.397H78.4225C78.0155 128.088 77.5243 127.905 77.1735 127.512L77.1875 127.541C77.0051 127.442 76.8788 127.288 76.7244 127.147C76.3314 126.825 75.8402 126.642 75.4894 126.263L75.5034 126.291C75.321 126.193 75.1806 126.039 75.0543 125.87L75.0684 125.884C74.6473 125.603 74.1702 125.393 73.8053 125.014L73.8193 125.042C73.6369 124.93 73.4965 124.789 73.3702 124.621L73.3843 124.635C73.2158 124.523 73.0896 124.368 72.9352 124.228C72.7247 123.975 72.3036 124.059 72.1212 123.765L72.1493 123.793C71.9668 123.694 71.8265 123.54 71.7002 123.372H71.7142C71.1108 123.007 70.6055 122.515 70.0301 122.094L70.0442 122.108C69.6231 121.813 69.1319 121.631 68.7951 121.224L68.8092 121.252C68.6267 121.154 68.4723 120.999 68.3601 120.817L68.3741 120.831C68.1917 120.733 68.0653 120.578 67.925 120.424C67.532 120.115 67.0268 119.918 66.676 119.553L66.69 119.582C66.5076 119.469 66.3672 119.329 66.2409 119.146L66.255 119.16C66.0866 119.048 65.9602 118.894 65.8059 118.767C65.5953 118.501 65.1743 118.599 64.9919 118.29L65.02 118.318C64.8375 118.22 64.6972 118.066 64.5709 117.897L64.5849 117.911C64.4165 117.799 64.2761 117.644 64.1358 117.504C63.7428 117.181 63.2517 116.999 62.9008 116.62L62.9148 116.648C62.7324 116.535 62.592 116.395 62.4657 116.227H62.4798C61.8763 115.848 61.3571 115.384 60.8097 114.935L60.8238 114.963C60.6413 114.865 60.515 114.711 60.3747 114.556C59.9958 114.219 59.4765 114.065 59.1397 113.672L59.1537 113.7C58.9712 113.602 58.8169 113.447 58.7046 113.265H58.7186C58.0871 112.942 57.5819 112.437 57.0205 111.987L57.0346 112.016C56.8521 111.903 56.7118 111.763 56.5995 111.58L56.6135 111.594C56.4311 111.482 56.3048 111.328 56.1644 111.187C55.7715 110.865 55.2663 110.696 54.9294 110.303L54.9435 110.331C54.761 110.233 54.6207 110.078 54.4944 109.91L54.5084 109.924C54.34 109.812 54.1997 109.657 54.0734 109.503H54.0874C53.6804 109.208 53.1892 109.012 52.8384 108.633L52.8524 108.661C52.67 108.562 52.5156 108.408 52.4033 108.226L52.4173 108.24C52.2349 108.127 52.0946 107.973 51.9682 107.818L51.9823 107.833C51.8279 107.706 51.6876 107.566 51.5472 107.425C51.3367 107.173 50.9157 107.257 50.7332 106.962L50.7613 106.99C50.5789 106.892 50.4245 106.738 50.3122 106.555L50.3263 106.569C50.1438 106.457 50.0035 106.317 49.8912 106.134L49.9052 106.148C49.7368 106.036 49.5965 105.881 49.4562 105.741C49.0632 105.418 48.558 105.25 48.2211 104.857L48.2352 104.885C48.0527 104.786 47.9124 104.632 47.7861 104.45L47.8001 104.464C47.6317 104.351 47.4773 104.197 47.3651 104.028L47.3791 104.043C47.2107 103.93 47.0844 103.776 46.93 103.635C46.5511 103.299 46.0459 103.144 45.695 102.751L45.7091 102.779C45.5266 102.681 45.3722 102.527 45.2599 102.344L45.274 102.358C45.0915 102.246 44.9512 102.091 44.8249 101.937H44.8389C44.2355 101.572 43.7022 101.095 43.1689 100.646L43.1829 100.674C43.0005 100.561 42.8601 100.421 42.7479 100.238L42.7619 100.253C42.5794 100.14 42.4391 99.9998 42.3268 99.8174L42.3409 99.8314C41.3444 99.312 40.7269 98.3435 39.8147 97.7259L39.8288 97.7539C39.6463 97.6416 39.506 97.5012 39.3797 97.3328H39.3937C38.4254 96.7713 37.7938 95.8308 36.8816 95.2132L36.8956 95.2413C36.7132 95.129 36.5729 94.9886 36.4606 94.8061L36.4746 94.8202C36.3062 94.7079 36.1518 94.5535 36.0396 94.385L36.0536 94.3991C35.8852 94.2868 35.7448 94.1324 35.6045 93.992C35.4642 93.8516 35.3238 93.7253 35.1694 93.599L35.1554 93.5849C34.2572 92.9533 33.5696 92.083 32.6854 91.4373L32.6994 91.4653C32.531 91.353 32.3907 91.1986 32.2504 91.0583C32.11 90.9179 31.9697 90.7775 31.8293 90.6512C30.2715 89.5563 29.1769 87.9701 27.6612 86.8331L27.6752 86.8612C27.4928 86.7489 27.3665 86.5945 27.2261 86.4401L27.2402 86.4541C27.0858 86.3278 26.9455 86.1874 26.8051 86.033C26.6507 85.8926 26.5104 85.7523 26.3841 85.6119C26.2297 85.4715 26.0894 85.3311 25.9631 85.1908C22.8475 82.4536 19.9425 79.4777 17.1497 76.4176L17.1356 76.4036C17.0093 76.2632 16.869 76.1228 16.7286 75.9825C16.5883 75.8421 16.448 75.7017 16.3216 75.5473L16.3357 75.5614C16.1673 75.435 16.0269 75.2947 15.9006 75.1403C15.7463 74.9999 15.6059 74.8595 15.4796 74.7051L15.4936 74.7191C15.3393 74.5928 15.1849 74.4524 15.0726 74.284L15.0867 74.298C14.9182 74.1717 14.7639 74.0313 14.6656 73.8488L14.6797 73.8629C14.4972 73.7506 14.3428 73.6102 14.2446 73.4137L14.2586 73.4277C14.0762 73.3295 13.9218 73.1751 13.8236 72.9926L13.8517 73.0066C13.3885 72.4873 12.9535 71.9258 12.5465 71.3643C12.4061 71.2239 12.2658 71.0835 12.1395 70.9151L12.1535 70.9291C11.9851 70.8028 11.8307 70.6624 11.7325 70.48L11.7465 70.494C11.5641 70.3817 11.4097 70.2413 11.3115 70.0589L11.3255 70.0729C11.1431 69.9606 11.0027 69.8202 10.8905 69.6377L10.9185 69.6518C10.5396 69.3009 10.3572 68.8096 10.0344 68.4025C9.88001 68.2621 9.72563 68.1217 9.62739 67.9533L9.65546 67.9673C9.40284 67.6445 9.10813 67.3778 8.81341 67.083L8.84149 67.1111C8.53274 66.9286 8.61694 66.5075 8.36432 66.2969C8.22398 66.1566 8.06961 66.0162 7.95733 65.8477L7.98541 65.8618C7.62052 65.4968 7.41 65.0195 7.11529 64.5984L7.12933 64.6125C6.96092 64.4861 6.82057 64.3458 6.7083 64.1633L6.72234 64.1773C6.55393 64.065 6.39955 63.9106 6.30131 63.7281L6.32938 63.7562C6.02063 63.5597 6.10484 63.1526 5.86626 62.914L5.88029 62.928C5.54347 62.535 5.31892 62.0858 5.03824 61.6507L5.05228 61.6647C4.70142 61.2857 4.47688 60.8225 4.1962 60.3873L4.21023 60.4014C3.92955 60.2048 4.01376 59.7978 3.76114 59.5732C3.46643 59.1521 3.19978 58.731 2.9612 58.2818L2.97524 58.3098C2.66649 58.0993 2.73665 57.7063 2.54017 57.4536L2.55421 57.4817C2.18932 56.9483 2.10512 56.2885 1.69813 55.7832L1.71217 55.8113C1.26308 55.4884 1.62796 54.8848 1.26308 54.5339L1.27711 54.562C0.85609 54.197 1.17887 53.6074 0.856086 53.2284C0.884154 53.1161 0.884148 53.0039 0.828011 52.9056C0.336818 52.2459 0.88415 51.3896 0.435059 50.7298C0.435059 50.3649 0.435059 49.9999 0.435059 49.649C0.828013 49.1296 0.364892 48.3857 0.856086 47.8944L0.842049 47.9224C1.05256 47.6698 0.996425 47.2908 1.24904 47.0521C1.50165 46.8275 1.41745 46.4205 1.71217 46.224L1.68409 46.252C1.79636 46.0695 1.93671 45.9292 2.11916 45.8169L2.10512 45.8309C2.21739 45.6484 2.35773 45.5081 2.55421 45.3958L2.52615 45.4238C2.69455 45.115 3.12961 45.2273 3.29801 44.9326L3.34012 44.9045C3.49449 44.7922 3.64886 44.6659 3.78921 44.5395L3.77518 44.5535C3.99972 44.2588 4.40671 44.329 4.67336 44.1324C4.79967 44.1465 4.92597 44.1184 5.03824 44.0482C5.27682 43.8657 5.64171 43.9359 5.86626 43.6833C6.24518 43.3183 6.80654 43.599 7.19949 43.2902C7.4521 43.2621 7.71876 43.2341 7.97137 43.22C8.5187 42.8691 9.19234 43.2341 9.73967 42.8831C11.9009 42.8831 14.0762 42.8831 16.2374 42.8831C17.0655 43.3183 18.0198 42.7989 18.8478 43.2341C19.1285 43.2481 19.3951 43.2621 19.6758 43.2762C20.4617 43.7815 21.416 43.1779 22.2019 43.6692C22.3282 43.7254 22.4545 43.7394 22.5809 43.7113C23.0861 44.1184 23.7597 43.7113 24.293 44.0623C24.5597 44.0903 24.8263 44.1044 25.093 44.1324C25.6122 44.5395 26.3139 44.1044 26.8192 44.5114C26.9455 44.5676 27.0718 44.5676 27.1981 44.5395C27.7033 44.9606 28.405 44.5114 28.9243 44.9326C29.0365 44.9887 29.1488 45.0027 29.2751 44.9747C29.6681 45.2835 30.2014 45.0168 30.5943 45.3256C30.7206 45.3817 30.8469 45.3958 30.9873 45.3677C31.3522 45.7186 31.8995 45.4239 32.2644 45.7327C32.517 45.7607 32.7556 45.7888 33.0082 45.8169C33.3029 45.9713 33.6678 45.9573 33.9485 46.1397C34.1871 46.1678 34.4397 46.1959 34.6782 46.238C34.973 46.3924 35.3238 46.3784 35.6185 46.5608C35.7448 46.617 35.8852 46.6451 36.0255 46.631C36.3904 46.996 36.9377 46.6731 37.3026 47.01C37.4149 47.0662 37.5412 47.0802 37.6815 47.0521C38.0605 47.389 38.6218 47.0802 38.9867 47.4452C39.0849 47.5013 39.1972 47.5154 39.3095 47.4873C39.6042 47.6557 39.9551 47.6277 40.2357 47.8242C40.362 47.8803 40.4884 47.9084 40.6147 47.8944C40.9796 48.2453 41.5549 47.9224 41.9198 48.2874C42.0181 48.3436 42.1304 48.3576 42.2426 48.3295C42.5233 48.512 42.9022 48.4558 43.1689 48.6804C43.2811 48.7366 43.3934 48.7647 43.5197 48.7366C43.8986 49.0594 44.474 48.7647 44.8389 49.1296C45.1757 49.5086 45.7511 49.1717 46.088 49.5367C46.4248 49.9297 46.9861 49.5928 47.337 49.9297C47.4493 49.9859 47.5615 50.014 47.6738 49.9859C47.9545 50.1684 48.3334 50.1122 48.6001 50.3509C48.7123 50.407 48.8246 50.4351 48.9509 50.407C49.2176 50.6035 49.5825 50.5474 49.8491 50.7579C49.9614 50.8281 50.0877 50.8421 50.214 50.8281C50.4806 51.0246 50.8455 50.9685 51.0981 51.179C51.2244 51.2352 51.3507 51.2633 51.477 51.2352C51.7297 51.4457 52.0805 51.3896 52.3472 51.5721C52.4735 51.6423 52.5998 51.6563 52.7401 51.6423C53.105 51.9932 53.6944 51.6563 54.0313 52.0634L54.0172 52.0493C54.2558 52.2739 54.6207 52.2037 54.8593 52.4003C54.9715 52.4704 55.0978 52.4845 55.2382 52.4704C55.4908 52.681 55.8557 52.6248 56.1223 52.8214C56.2346 52.8775 56.3609 52.9056 56.5012 52.8916C56.7539 53.1021 57.1328 53.0319 57.3854 53.2565C57.4977 53.3127 57.6099 53.3407 57.7363 53.3267C58.0169 53.5092 58.3818 53.453 58.6485 53.6917C58.7467 53.7618 58.859 53.7759 58.9713 53.7619C59.266 53.9303 59.6449 53.9022 59.9115 54.1408H59.9256C60.2484 54.5339 60.8378 54.183 61.1746 54.562C61.4974 54.955 62.1009 54.59 62.4236 55.0111L62.4096 54.9971C62.6482 55.2077 63.0131 55.1515 63.2657 55.3621C63.378 55.4323 63.4902 55.4463 63.6165 55.4323C63.8972 55.6288 64.2761 55.5726 64.5288 55.8113H64.5428C64.8796 56.2043 65.455 55.8534 65.7918 56.2324C66.0164 56.485 66.3672 56.4008 66.6198 56.5973C66.7321 56.6675 66.8444 56.6956 66.9847 56.6815C67.2514 56.8781 67.6303 56.8219 67.8829 57.0465C67.9952 57.1027 68.1074 57.1307 68.2337 57.1027C68.5144 57.2992 68.8934 57.243 69.146 57.4957C69.3705 57.7343 69.7214 57.6641 69.974 57.8607C70.1003 57.9168 70.2266 57.9449 70.3529 57.9308C70.6055 58.1554 70.9844 58.0712 71.237 58.3098C71.3353 58.38 71.4335 58.3941 71.5458 58.38C71.8545 58.5344 72.2335 58.5064 72.5001 58.7731H72.4861C72.7247 59.0117 73.0755 58.9275 73.3281 59.138C73.4404 59.2082 73.5527 59.2363 73.679 59.2082C73.9597 59.3907 74.3386 59.3486 74.6052 59.6013C74.928 59.9943 75.5315 59.6153 75.8543 60.0504L75.8402 60.0364C76.0928 60.247 76.4718 60.1908 76.7104 60.4294C77.0472 60.8225 77.6366 60.4575 77.9594 60.8646L77.9453 60.8505C78.1839 61.0751 78.5628 61.019 78.8014 61.2436H78.8155C79.1383 61.6507 79.7277 61.2857 80.0505 61.6928H80.0364C80.275 61.9314 80.6539 61.8472 80.8925 62.0858C80.9767 62.142 81.075 62.17 81.1872 62.142C81.496 62.2964 81.8889 62.2543 82.1415 62.535H82.1275C82.3661 62.7596 82.745 62.7034 82.9836 62.928H82.9976C83.2081 63.1807 83.573 63.0965 83.8116 63.293C83.9239 63.3632 84.0361 63.3913 84.1765 63.3772C84.4572 63.5737 84.8361 63.5176 85.0887 63.7562H85.1027C85.3132 64.0089 85.6922 63.9247 85.9167 64.1352C86.029 64.2054 86.1413 64.2194 86.2676 64.2054C86.5482 64.4019 86.9272 64.3458 87.1798 64.5984C87.4043 64.8511 87.7833 64.7669 88.0078 64.9915C88.106 65.0617 88.2043 65.0897 88.3165 65.0617C88.6253 65.2301 89.0042 65.188 89.2709 65.4547C89.5094 65.6933 89.8884 65.6091 90.1129 65.8477C90.1971 65.9039 90.3094 65.932 90.4076 65.9039C90.6181 65.96 90.7725 66.1004 90.9409 66.2408C91.0532 66.311 91.1655 66.339 91.2918 66.325C91.5725 66.5215 91.9514 66.4654 92.204 66.718C92.4285 66.9707 92.8075 66.9005 93.046 67.1251L93.0601 67.1391C93.3828 67.5462 93.9863 67.1813 94.2951 67.5883L94.281 67.5743C94.5196 67.7989 94.9126 67.7287 95.1371 67.9814C95.3616 68.22 95.7265 68.1498 95.9651 68.3463C96.0774 68.4165 96.1897 68.4305 96.3019 68.4165C96.5826 68.599 96.9756 68.5428 97.2142 68.8236L97.2001 68.8095C97.4387 69.0341 97.8176 68.964 98.0562 69.2166C98.2807 69.4693 98.6456 69.3851 98.8842 69.5816C98.9965 69.6518 99.1088 69.6658 99.2351 69.6658C99.5158 69.8623 99.9087 69.7921 100.147 70.0869L100.133 70.0729C100.386 70.2834 100.751 70.2273 101.003 70.4659H101.017C101.228 70.7186 101.607 70.6344 101.845 70.859C101.944 70.9291 102.042 70.9572 102.154 70.9432C102.463 71.1116 102.856 71.0555 103.094 71.3503L103.08 71.3362C103.333 71.5468 103.712 71.4906 103.951 71.7293C104.175 71.9679 104.554 71.8977 104.793 72.1363C105.003 72.389 105.368 72.3048 105.607 72.5013C105.719 72.5715 105.831 72.5995 105.971 72.5855C106.238 72.782 106.645 72.7119 106.87 73.0066L106.856 72.9926C107.108 73.2172 107.487 73.147 107.712 73.3997C107.936 73.6383 108.329 73.5541 108.554 73.7927C108.638 73.8488 108.736 73.8769 108.848 73.8488C109.059 73.905 109.227 74.0454 109.382 74.1857C109.48 74.2559 109.592 74.284 109.719 74.27C110.013 74.4524 110.406 74.3963 110.645 74.677L110.631 74.663C110.883 74.8876 111.262 74.8174 111.487 75.0701C111.711 75.3227 112.09 75.2385 112.329 75.4631C112.427 75.5193 112.525 75.5473 112.624 75.5193C112.834 75.5894 112.988 75.7158 113.157 75.8561C113.255 75.9263 113.367 75.9544 113.48 75.9404C113.774 76.1088 114.167 76.0527 114.406 76.3615L114.392 76.3474C114.644 76.558 115.023 76.4878 115.262 76.7405C115.487 76.9791 115.879 76.9089 116.104 77.1475C116.329 77.4002 116.708 77.316 116.932 77.5406C117.016 77.5967 117.129 77.6248 117.227 77.5967C117.437 77.6529 117.606 77.7932 117.76 77.9336C117.858 78.0038 117.971 78.0319 118.083 78.0178C118.378 78.1863 118.785 78.1301 119.009 78.439L118.995 78.4249C119.248 78.6214 119.627 78.5653 119.865 78.818C120.09 79.0566 120.483 78.9864 120.707 79.2391C120.932 79.4917 121.325 79.3935 121.549 79.6461C121.633 79.7023 121.732 79.7304 121.83 79.7023C122.054 79.7584 122.209 79.8988 122.377 80.0532C122.461 80.1234 122.574 80.1374 122.672 80.1234C122.883 80.1936 123.051 80.334 123.205 80.4743C123.304 80.5445 123.402 80.5726 123.514 80.5586C123.809 80.727 124.202 80.6708 124.454 80.9656L124.44 80.9516C124.679 81.1762 125.072 81.106 125.296 81.3727H125.282C125.521 81.5973 125.9 81.5411 126.138 81.7938C126.363 82.0324 126.742 81.9623 126.98 82.1869L126.995 82.2009C127.205 82.4676 127.584 82.3834 127.823 82.608L127.837 82.622C128.033 82.8887 128.412 82.7904 128.651 83.015C128.749 83.0852 128.861 83.0993 128.973 83.0852C129.268 83.2677 129.661 83.1975 129.9 83.5063L129.871 83.4783C130.026 83.5906 130.166 83.7028 130.321 83.8151C130.419 83.8853 130.531 83.9134 130.657 83.8994C130.938 84.0818 131.331 84.0257 131.57 84.3064L131.556 84.2924C131.794 84.517 132.187 84.4468 132.412 84.7135L132.398 84.6995C132.636 84.9241 133.029 84.8539 133.254 85.1206H133.24C133.478 85.3452 133.857 85.289 134.096 85.5277C134.32 85.7803 134.713 85.6961 134.938 85.9488C135.162 86.2014 135.541 86.1172 135.78 86.3558C135.864 86.426 135.962 86.4401 136.075 86.412C136.299 86.4681 136.468 86.6085 136.622 86.7629C136.706 86.8331 136.804 86.8471 136.917 86.8331C137.141 86.8893 137.31 87.0296 137.464 87.184C137.548 87.2542 137.66 87.2823 137.773 87.2542C138.081 87.4086 138.474 87.3665 138.727 87.6613L138.713 87.6473C138.966 87.8578 139.359 87.7876 139.569 88.0824L139.555 88.0684C139.808 88.2789 140.201 88.2087 140.411 88.4895L140.397 88.4754C140.65 88.686 141.029 88.6158 141.253 88.8966L141.239 88.8825C141.478 89.1071 141.871 89.0369 142.095 89.3177L142.081 89.3036C142.334 89.5282 142.713 89.458 142.937 89.7107C143.176 89.9493 143.555 89.8791 143.779 90.1318C144.004 90.3845 144.397 90.3003 144.621 90.5529C144.846 90.7916 145.225 90.7214 145.463 90.946L145.477 90.96C145.688 91.2267 146.067 91.1425 146.305 91.3671L146.319 91.3811C146.53 91.6478 146.909 91.5636 147.133 91.7882L147.147 91.8022C147.344 92.0689 147.723 91.9707 147.961 92.1812C148.06 92.2514 148.158 92.2795 148.27 92.2654C148.481 92.3356 148.649 92.49 148.817 92.6304L148.832 92.6444C149.028 92.9111 149.421 92.8129 149.646 93.0515C149.73 93.1217 149.842 93.1357 149.94 93.1077C150.151 93.1778 150.319 93.3042 150.474 93.4586C150.558 93.5288 150.656 93.5568 150.768 93.5288C150.979 93.599 151.147 93.7253 151.302 93.8797C151.386 93.9499 151.498 93.978 151.61 93.9639C151.919 94.1183 152.312 94.0762 152.551 94.385L152.522 94.357C152.677 94.4693 152.817 94.5815 152.972 94.6938C153.07 94.764 153.182 94.7921 153.308 94.7781C153.505 94.8482 153.659 94.9886 153.814 95.115C153.912 95.1851 154.024 95.2132 154.15 95.1992C154.431 95.3817 154.838 95.3115 155.063 95.6343L155.049 95.6203C155.301 95.8309 155.694 95.7466 155.905 96.0554L155.877 96.0274C156.031 96.1397 156.185 96.252 156.326 96.3783C156.424 96.4485 156.522 96.4766 156.649 96.4625C156.943 96.631 157.35 96.5748 157.589 96.8836L157.561 96.8696C157.701 96.9819 157.855 97.0942 157.996 97.2065C158.094 97.2767 158.206 97.3047 158.333 97.3047C158.515 97.3749 158.669 97.5153 158.838 97.6416C158.95 97.7118 159.062 97.7399 159.203 97.7259C159.469 97.9224 159.876 97.8522 160.101 98.161L160.087 98.147C160.34 98.3575 160.732 98.2733 160.943 98.5821L160.929 98.5681C161.182 98.7646 161.574 98.7084 161.799 98.9892L161.771 98.9751C161.939 99.1155 162.01 99.284 161.996 99.4945C159.483 101.572 157.982 104.576 155.47 106.667C151.61 105.671 147.961 104.043 144.27 102.597C125.465 95.2974 106.771 87.7034 87.8955 80.6007C76.4016 76.2773 64.8796 71.996 52.9366 69.0061C50.5648 68.4165 48.1369 68.0796 45.7371 67.7006C45.2459 67.6304 44.7688 67.6304 44.2776 67.6725C41.6953 67.9533 41.0778 69.1886 42.5935 71.3081C44.9652 74.6209 48.0247 77.316 50.9718 80.0813C59.701 88.2228 68.8372 95.901 78.212 103.285C89.8463 112.437 101.817 121.14 113.999 129.562C121.409 134.685 128.833 139.781 136.439 144.596C151.989 154.744 167.469 165.019 183.005 175.182C192.59 181.457 202.231 187.605 211.887 193.767C212.645 194.287 213.374 194.708 213.823 195.452Z" fill="#C874D6"/>
<path d="M155.708 106.555C155.989 106.162 156.27 105.769 156.536 105.376C158.88 101.895 158.88 101.895 161.897 99.4524C162.01 99.298 162.136 99.1717 162.304 99.0594C162.641 98.8348 162.908 98.526 163.174 98.2312L163.146 98.2452C163.259 98.0627 163.399 97.9224 163.581 97.8101L163.567 97.8381C165.392 96.4485 166.697 94.5114 168.592 93.2059H168.577C168.704 93.0515 168.844 92.8971 169.013 92.7848L168.999 92.7989C169.125 92.6304 169.265 92.49 169.434 92.3637L169.42 92.3777C169.546 92.2093 169.686 92.0689 169.855 91.9426L169.841 91.9566C169.953 91.7882 170.107 91.6478 170.276 91.5215L170.262 91.5355C170.374 91.3671 170.528 91.2127 170.697 91.1004L170.683 91.1284C171.033 90.7494 171.539 90.581 171.918 90.2441C172.058 90.1037 172.198 89.9634 172.339 89.837C172.479 89.6967 172.619 89.5423 172.774 89.43L172.76 89.444C173.125 89.0931 173.63 88.9387 173.967 88.5597L174.009 88.5316C174.163 88.4193 174.303 88.293 174.43 88.1526C174.57 88.0122 174.71 87.8719 174.865 87.7455L174.851 87.7595C174.977 87.6051 175.117 87.4507 175.286 87.3384L175.272 87.3525C175.468 87.0717 175.875 87.17 176.072 86.8893L176.086 86.8752C176.226 86.7489 176.38 86.6226 176.521 86.4822H176.507C176.633 86.3278 176.773 86.1734 176.942 86.0611L176.928 86.0751C177.293 85.7242 177.784 85.5277 178.177 85.2188C178.317 85.0644 178.443 84.9241 178.626 84.8118L178.612 84.8258C178.977 84.4609 179.454 84.2643 179.861 83.9555C180.254 83.6327 180.717 83.4081 181.124 83.1133C181.264 82.9589 181.391 82.8045 181.573 82.7062L181.559 82.7203C181.756 82.4255 182.162 82.5237 182.373 82.2711C182.513 82.1307 182.654 81.9763 182.822 81.878L182.808 81.9061C183.005 81.6113 183.412 81.6956 183.636 81.4569C183.776 81.3166 183.917 81.1621 184.085 81.0498L184.071 81.0639C184.268 80.7831 184.675 80.8674 184.899 80.6147C185.292 80.2918 185.755 80.0673 186.162 79.7865H186.148C186.78 79.2531 187.594 79.0285 188.253 78.5232H188.239C188.45 78.2565 188.843 78.3547 189.053 78.074L189.067 78.06C189.222 77.9336 189.348 77.7792 189.516 77.681L189.502 77.695C189.713 77.4002 190.106 77.4844 190.344 77.2599L190.33 77.2739C190.541 76.9931 190.934 77.0633 191.172 76.8387H191.158C191.369 76.572 191.762 76.6563 191.986 76.4036C192.211 76.1509 192.59 76.2351 192.814 75.9825H192.828C192.969 75.8421 193.109 75.6877 193.278 75.5894L193.263 75.6035C193.797 75.2526 194.456 75.1683 194.948 74.7472L194.934 74.7613C195.144 74.4665 195.537 74.5507 195.79 74.3261L195.776 74.3401C196.014 74.0454 196.407 74.1015 196.688 73.919C196.8 73.9331 196.912 73.919 197.025 73.8488C197.165 73.7225 197.319 73.5962 197.474 73.4698L197.46 73.4839C197.67 73.1891 198.063 73.2593 198.316 73.0487L198.302 73.0628C198.61 72.6276 199.214 73.0066 199.537 72.5996C199.761 72.3609 200.154 72.4311 200.379 72.1925C200.603 71.9398 200.982 71.996 201.235 71.7854L201.221 71.7994C201.459 71.5047 201.852 71.5608 202.147 71.3783C202.259 71.3924 202.372 71.3783 202.47 71.3222C202.708 71.0976 203.087 71.1818 203.312 70.9291C203.536 70.6765 203.915 70.7326 204.168 70.5221L204.154 70.5361C204.463 70.101 205.066 70.48 205.403 70.0869C205.656 69.8343 206.034 69.8904 206.315 69.6939C206.427 69.7079 206.554 69.6939 206.652 69.6377C206.891 69.3991 207.27 69.4833 207.494 69.2447C207.817 68.8517 208.406 69.2026 208.743 68.8095C208.996 68.5569 209.375 68.599 209.655 68.4165C209.768 68.4305 209.88 68.4165 209.992 68.3604C210.259 68.1217 210.638 68.1779 210.918 67.9954C211.031 68.0235 211.143 68.0094 211.255 67.9533C211.508 67.7006 211.901 67.7708 212.181 67.5743C212.308 67.5883 212.42 67.5743 212.518 67.5181C212.785 67.2795 213.15 67.3357 213.444 67.1532C213.557 67.1813 213.669 67.1672 213.781 67.1111C214.132 66.7461 214.694 67.083 215.044 66.718C215.409 66.339 215.985 66.6478 216.35 66.311C216.476 66.325 216.602 66.311 216.714 66.2548C217.065 65.932 217.627 66.2408 217.963 65.8758C218.441 65.4126 219.156 65.9179 219.634 65.4547C220.012 65.0897 220.574 65.3845 220.953 65.0617C221.065 65.0897 221.191 65.0757 221.304 65.0336C221.683 64.6686 222.244 64.9634 222.651 64.6546C222.763 64.6827 222.875 64.6686 222.974 64.6265C223.479 64.1633 224.195 64.6406 224.714 64.2194C224.84 64.2475 224.966 64.2335 225.079 64.1914C225.584 63.7562 226.286 64.2335 226.791 63.7983C226.931 63.8124 227.058 63.8124 227.184 63.7562C227.703 63.3632 228.405 63.7843 228.924 63.3913C229.036 63.4193 229.163 63.4053 229.275 63.3632C229.935 62.8859 230.777 63.4193 231.45 62.9701C231.563 62.9982 231.675 62.9982 231.787 62.9561C232.587 62.4227 233.569 63.0403 234.369 62.549C234.622 62.535 234.889 62.535 235.141 62.521C236.081 62.0016 237.19 62.6333 238.13 62.1279C238.383 62.1139 238.65 62.1139 238.902 62.0998C240.544 61.5384 242.299 62.2543 243.955 61.6928C244.095 61.7068 244.221 61.7068 244.362 61.6647C248.403 61.3559 252.459 61.3559 256.501 61.6647C256.768 61.6787 257.034 61.6787 257.315 61.6928C258.971 62.2402 260.725 61.5243 262.381 62.0998C262.494 62.142 262.62 62.156 262.746 62.1139C263.841 62.6473 265.076 61.9454 266.157 62.521C266.409 62.521 266.662 62.535 266.914 62.535C267.588 62.9701 268.416 62.4508 269.09 62.914C269.216 62.9561 269.342 62.9561 269.469 62.928C270.114 63.4053 270.956 62.8578 271.602 63.3211C271.728 63.3632 271.84 63.3772 271.967 63.3491C272.612 63.8124 273.454 63.2649 274.1 63.7562C274.577 64.2054 275.279 63.7422 275.77 64.1493C276.023 64.1633 276.275 64.1914 276.542 64.2054C276.935 64.5142 277.496 64.2335 277.875 64.5844C278.001 64.6265 278.128 64.6406 278.254 64.6125C278.745 65.0476 279.475 64.5563 279.966 65.0336H279.952C280.443 65.4687 281.159 64.9774 281.636 65.4547C281.987 65.8197 282.548 65.4828 282.899 65.8477C283.011 65.8899 283.138 65.9039 283.264 65.8758C283.643 66.2127 284.218 65.9039 284.569 66.2829C285.046 66.7321 285.776 66.2267 286.239 66.718L286.225 66.704C286.576 67.0549 287.166 66.718 287.488 67.1251L287.474 67.1111C287.825 67.462 288.401 67.1391 288.737 67.5322C289.088 67.8971 289.664 67.5603 290 67.9533C290.337 68.3183 290.927 67.9814 291.264 68.3884H291.249C291.488 68.613 291.867 68.5428 292.106 68.7674C292.218 68.8236 292.33 68.8376 292.456 68.8095C292.737 69.0061 293.116 68.9359 293.369 69.1886C293.467 69.2447 293.579 69.2587 293.691 69.2447C293.986 69.4272 294.365 69.371 294.618 69.6518H294.604C294.94 70.0167 295.544 69.6658 295.867 70.0869L295.853 70.0729C296.105 70.2834 296.484 70.2273 296.709 70.48C297.046 70.859 297.649 70.494 297.972 70.9151L297.958 70.9011C298.21 71.1116 298.589 71.0414 298.814 71.3222L298.8 71.3081C299.038 71.5327 299.417 71.4626 299.656 71.7012H299.67C300.316 72.1083 301.101 72.1504 301.747 72.5855L301.733 72.5715C301.986 72.782 302.379 72.7118 302.589 72.9926L302.575 72.9785C302.814 73.2031 303.207 73.133 303.431 73.3997L303.417 73.3856C303.656 73.6102 304.049 73.54 304.273 73.8067L304.259 73.7927C304.498 74.0173 304.891 73.9471 305.115 74.2138C305.354 74.4524 305.747 74.3682 305.957 74.6349H305.943C306.182 74.8595 306.561 74.7893 306.785 75.056C307.01 75.2947 307.403 75.2245 307.627 75.4771C307.852 75.7298 308.259 75.6456 308.455 75.9263L308.427 75.9123C308.582 75.9825 308.638 76.0667 308.61 76.1509C308.568 76.2492 308.525 76.3053 308.483 76.3053C308.09 76.6282 308.343 76.9651 308.54 77.2177C309.185 78.074 309.438 79.0847 309.803 80.0532C310.841 82.8326 309.69 85.4154 306.687 86.5804C305.606 87.0016 304.442 87.2823 303.221 87.2261C302.379 87.184 301.579 87.1139 300.793 86.7349C298.884 85.8365 296.863 85.3171 294.73 85.5277C293.046 85.6961 291.614 86.2436 290.927 87.9701C290.534 88.9387 290.085 89.8791 289.748 90.8758C289.467 91.718 289.608 92.5181 290.337 93.1638C291.165 93.8937 291.909 94.7219 292.835 95.3817C294.126 96.3081 295.291 97.4311 296.484 98.4839C297.06 98.9892 297.593 99.5226 298.238 99.9577C298.926 100.421 299.502 101.053 300.063 101.67C300.652 102.302 300.975 103.06 300.947 103.958C300.905 105.067 300.947 106.148 300.652 107.271C300.021 109.671 297.705 111.412 295.067 111.538C294.028 111.594 292.976 111.524 291.923 111.552C290.8 111.594 289.888 111.187 289.116 110.387C288.092 109.334 286.983 108.394 285.832 107.496C284.541 106.471 283.04 106.176 281.538 106.148C280.036 106.134 278.703 106.78 278.015 108.324C277.566 109.349 277.103 110.359 277.047 111.496C277.005 112.254 277.187 112.928 277.847 113.321C279.25 114.149 280.261 115.427 281.412 116.535C282.815 117.883 284.485 118.936 285.748 120.438C285.973 120.704 286.239 120.929 286.492 121.182C287.755 122.487 287.769 122.684 287.039 124.284C286.436 125.646 285.566 126.797 284.485 127.807C282.352 129.786 278.871 129.492 277.117 127.162C276.247 125.996 275.307 124.888 274.381 123.751C273.861 123.119 273.216 122.782 272.374 122.852C271.812 122.894 271.251 122.852 270.704 122.866C267.841 122.964 265.427 125.631 265.764 128.692C265.848 129.421 266.114 130.053 266.592 130.573C267.251 131.288 267.897 132.074 268.683 132.608C269.679 133.282 270.507 134.124 271.335 134.952C274.254 137.858 277.145 140.791 280.078 143.683C281.468 145.045 282.099 146.645 282.085 148.554C282.085 149.186 282.113 149.817 282.071 150.435C281.987 151.558 281.468 152.4 280.373 152.849C278.984 153.425 277.552 153.579 276.079 153.425C275.363 153.355 274.759 152.99 274.24 152.512C271.546 150 268.711 147.642 265.834 145.354C265.286 144.918 264.837 144.385 264.332 143.894C264.009 143.571 263.658 143.459 263.195 143.627C262.283 143.978 261.357 144.259 260.445 144.61C259.168 145.101 258.269 145.999 257.498 147.15C256.838 148.147 256.894 149.115 257.048 150.14C257.105 150.519 257.357 150.94 257.652 151.207C258.368 151.867 259.168 152.428 259.911 153.06C261.301 154.225 262.662 155.404 264.037 156.569C264.669 157.103 264.922 157.748 264.936 158.59C264.936 159.826 265.216 161.033 264.936 162.282C264.627 163.616 263.953 164.542 262.662 165.062C260.641 165.876 258.466 165.497 256.852 164.065C255.87 163.181 254.873 162.324 253.849 161.496C251.954 159.966 250.045 158.478 248.137 156.976C247.968 156.85 247.814 156.709 247.674 156.555C246.102 154.899 246.298 155.179 243.983 155.151C243.491 155.151 243 155.137 242.523 155.165C240.881 155.264 239.618 156.064 238.692 157.383C237.527 159.068 237.92 161.735 239.548 163.068C241.218 164.43 242.958 165.693 244.628 167.041C246.368 168.43 248.067 169.862 249.793 171.252C252.389 173.343 254.985 175.435 257.596 177.484C258.48 178.172 258.999 179.014 259.027 180.137C259.041 180.839 259.125 181.555 258.971 182.229C258.494 184.447 257.133 185.907 254.943 186.566C254.606 186.665 254.27 186.721 253.933 186.819C252.193 187.296 250.663 186.973 249.274 185.794C246.775 183.689 244.249 181.625 241.737 179.548C241.302 179.197 240.783 178.944 240.39 178.565C239.674 177.877 239.001 177.302 237.878 177.316C236.306 177.344 234.818 177.597 233.499 178.453C232.769 178.93 232.334 179.702 232.264 180.558C232.096 182.65 232.306 184.629 234.439 185.794C234.804 185.991 235.099 186.314 235.394 186.594C236.096 187.268 236.811 187.914 237.611 188.489C239.73 190.019 240.825 192.111 240.6 194.792C240.488 196.168 239.801 197.192 238.495 197.641C237.583 197.964 236.615 198.161 235.66 198.287C233.99 198.498 232.573 198.091 231.296 196.827C230.131 195.662 228.657 194.792 227.338 193.767C225.584 192.406 223.816 191.058 222.104 189.64C220.981 188.714 219.802 188.433 218.413 188.854C217.332 189.177 216.336 189.654 215.353 190.188C213.697 191.086 213.094 192.364 213.444 194.174C213.529 194.581 213.655 194.974 213.767 195.382C212.799 194.82 211.817 194.301 210.89 193.711C205.122 190.076 199.368 186.426 193.628 182.748C191.397 181.33 189.208 179.843 187.004 178.397C177.938 172.431 168.872 166.465 159.806 160.499C154.571 157.06 149.337 153.635 144.116 150.196C141.506 148.484 138.895 146.743 136.285 145.031C135.976 144.259 136.215 143.515 136.439 142.785C140.537 129.618 146.853 117.602 155.315 106.71C155.442 106.653 155.568 106.597 155.708 106.555Z" fill="#92B4FF"/>
<path d="M195.86 207.131C197.319 207.495 198.442 208.492 199.691 209.236C204.07 211.819 208.392 214.5 212.757 217.125C216.883 219.595 221.009 222.066 225.163 224.494C229.794 227.203 234.439 229.885 239.085 232.58C242.453 234.531 245.835 236.496 249.217 238.433C251.758 239.893 254.326 241.311 256.866 242.742C260.683 244.904 264.501 247.066 268.332 249.214C270.156 250.238 271.995 251.235 273.833 252.232C279.349 255.221 284.864 258.211 290.393 261.187C294.449 263.363 298.505 265.525 302.575 267.686C304.792 268.865 307.01 270.03 309.227 271.224C309.718 271.49 310.181 271.799 310.645 272.094C309.817 272.908 308.75 273.287 307.712 273.736C303.796 275.014 300.245 277.077 296.414 278.565C284.682 283.141 272.64 286.271 260.066 287.366C255.954 287.717 251.856 287.535 247.744 287.619C246.846 287.633 245.933 287.549 245.035 287.815C243.449 287.703 241.835 288.082 240.264 287.605L240.081 287.577L239.899 287.591C238.664 287.057 237.302 287.759 236.081 287.17H236.096C235.169 286.636 234.075 287.296 233.148 286.763L232.966 286.721L232.783 286.735C232.124 286.285 231.282 286.819 230.636 286.356C230.384 286.342 230.131 286.327 229.878 286.313C229.219 285.864 228.363 286.426 227.703 285.906L227.717 285.92C227.226 285.485 226.524 285.948 226.033 285.527L225.851 285.485L225.654 285.499C225.149 285.078 224.433 285.541 223.928 285.106L223.76 285.064L223.591 285.078C223.198 284.769 222.651 285.05 222.258 284.713L222.075 284.671L221.893 284.685C221.388 284.264 220.658 284.741 220.167 284.264H220.181C219.704 283.815 218.974 284.32 218.497 283.829L218.511 283.843C218.146 283.492 217.585 283.815 217.234 283.45C216.897 283.071 216.336 283.394 215.985 283.057L215.802 283.001H215.606C215.241 282.664 214.665 282.973 214.301 282.594C213.964 282.215 213.388 282.552 213.038 282.187L212.869 282.144H212.701C212.42 281.948 212.041 282.004 211.788 281.751C211.452 281.358 210.876 281.709 210.539 281.344L210.371 281.302H210.203C209.922 281.12 209.543 281.162 209.276 280.909C208.94 280.516 208.35 280.881 208.027 280.474H208.041C207.705 280.109 207.101 280.46 206.778 280.039L206.792 280.053C206.54 279.828 206.161 279.913 205.936 279.66L205.782 279.604H205.613C205.319 279.421 204.926 279.477 204.687 279.197L204.701 279.211C204.463 278.986 204.07 279.056 203.845 278.804C203.508 278.425 202.905 278.79 202.596 278.354L202.61 278.368C202.358 278.158 201.979 278.228 201.754 277.947L201.768 277.961C201.53 277.737 201.151 277.807 200.912 277.568H200.898C200.688 277.316 200.309 277.386 200.07 277.161L200.056 277.147C199.747 276.74 199.13 277.119 198.835 276.684L198.849 276.698C198.596 276.488 198.203 276.558 197.993 276.277L198.007 276.291C197.754 276.08 197.361 276.151 197.151 275.856L197.165 275.87C196.912 275.659 196.533 275.73 196.309 275.449L196.323 275.463C196.084 275.238 195.691 275.308 195.467 275.042L195.481 275.056C195.242 274.831 194.849 274.901 194.639 274.621L194.653 274.635C194.414 274.41 194.021 274.48 193.811 274.199L193.825 274.214C193.586 273.989 193.179 274.073 192.969 273.778L192.983 273.792C192.814 273.68 192.688 273.526 192.534 273.413L192.506 273.399C191.986 273.048 191.313 273.006 190.864 272.543C190.639 272.304 190.232 272.375 190.036 272.094L190.05 272.108C189.811 271.883 189.404 271.968 189.194 271.673L189.222 271.687C189.025 271.504 189.025 271.322 189.208 271.139C190.218 270.494 192.071 270.774 192.239 269.301C192.407 267.855 190.808 267.209 189.825 266.409C188.057 264.935 186.246 263.517 184.492 262.015C181.531 259.489 182.12 254.365 185.601 252.625C187.86 251.502 190.19 250.898 192.309 253.13C192.913 253.776 193.699 254.295 194.414 254.842C196.491 256.415 198.512 256.274 200.379 254.449C202.708 252.161 202.652 248.498 200.196 246.392C197.179 243.795 194.246 241.072 191.018 238.784C188.085 236.707 188.787 232.032 191.509 230.193C195.228 227.667 198.246 227.905 201.431 231.05C203.172 232.762 205.08 234.292 207.003 235.794C207.831 236.44 208.757 236.945 209.754 237.282C212.785 238.293 214.441 237.072 214.651 233.927C214.848 231.008 213.837 228.93 211.41 227.189C206.259 223.47 201.431 219.329 196.449 215.398C194.26 213.672 193.572 210.864 194.583 208.45C194.765 207.86 194.877 207.032 195.86 207.131Z" fill="#88CCFD"/>
<path d="M195.86 207.131C194.737 208.506 194.302 210.022 194.765 211.791C195.326 213.939 195.256 214.009 197.375 215.595C200.828 218.164 204.14 220.901 207.48 223.61C209.585 225.308 211.746 226.951 213.894 228.579C214.315 228.888 214.525 229.239 214.694 229.73C215.269 231.569 215.171 233.464 215.058 235.331C214.96 236.945 213.627 238.096 211.971 238.18C210.076 238.279 208.392 237.591 206.933 236.468C204.673 234.741 202.428 232.973 200.477 230.895C200 230.39 199.396 230.025 198.863 229.576C198.133 228.972 197.333 228.902 196.505 228.986C194.667 229.141 192.913 229.716 191.467 230.811C190.443 231.583 189.671 232.748 189.544 234.152C189.53 234.362 189.558 234.573 189.53 234.783C189.32 236.342 189.881 237.493 191.285 238.237C191.65 238.433 191.958 238.728 192.253 239.023C193.727 240.497 195.397 241.746 197.039 243.037C198.723 244.371 200.337 245.803 201.993 247.178C202.329 247.459 202.526 247.824 202.526 248.259C202.526 249.382 202.666 250.519 202.498 251.6C202.203 253.481 201.123 254.941 199.424 255.839C198.765 256.19 198.007 256.429 197.263 256.569C196.435 256.723 195.663 256.611 194.934 255.979C193.586 254.786 192.127 253.719 190.723 252.568C190.33 252.246 189.923 251.909 189.418 252.049C188.099 252.442 186.667 252.4 185.446 253.2C184.057 254.098 183.159 255.207 183.243 256.948C183.271 257.439 183.313 257.931 183.229 258.408C182.991 259.84 183.692 260.808 184.717 261.636C186.611 263.152 188.534 264.626 190.415 266.156C191.327 266.9 192.183 267.728 193.039 268.543C193.334 268.823 193.292 269.188 193.081 269.497C192.127 270.901 190.793 271.476 189.109 271.266C188.969 271.42 188.829 271.434 188.688 271.28L188.674 271.266C188.464 271.013 188.057 271.097 187.86 270.831H187.874C187.636 270.606 187.243 270.69 187.032 270.395L187.046 270.41C186.878 270.311 186.738 270.157 186.597 270.016C186.373 269.764 185.98 269.848 185.769 269.567L185.783 269.581C185.629 269.455 185.489 269.329 185.334 269.202L185.306 269.188C185.11 268.922 184.703 269.006 184.506 268.753C184.282 268.515 183.875 268.599 183.678 268.304L183.692 268.318C183.51 268.206 183.369 268.065 183.257 267.897H183.271C182.85 267.616 182.401 267.392 181.994 267.069C181.601 266.76 181.11 266.563 180.745 266.212L180.759 266.226C180.338 265.946 179.861 265.735 179.496 265.37L179.51 265.384C179.342 265.272 179.201 265.118 179.075 264.977C178.668 264.668 178.191 264.472 177.826 264.121L177.84 264.135C177.686 264.023 177.545 263.868 177.405 263.742L177.391 263.728C177.012 263.391 176.521 263.223 176.156 262.858L176.17 262.872C176.002 262.759 175.861 262.619 175.721 262.465C175.314 262.156 174.837 261.959 174.472 261.594L174.486 261.622C174.303 261.51 174.163 261.37 174.051 261.187L174.065 261.201C173.896 261.089 173.756 260.934 173.63 260.78C173.026 260.415 172.507 259.924 171.96 259.503L171.974 259.517C171.805 259.404 171.665 259.25 171.539 259.082L171.553 259.096C171.384 258.983 171.244 258.829 171.118 258.661H171.132C169.995 258.001 169.279 256.85 168.185 256.134L168.199 256.148C168.03 256.036 167.876 255.881 167.764 255.713L167.778 255.727C167.609 255.614 167.469 255.46 167.343 255.292L167.357 255.306C167.188 255.193 167.048 255.039 166.921 254.871L166.935 254.885C166.767 254.772 166.627 254.618 166.5 254.449L166.514 254.463C166.346 254.351 166.206 254.197 166.079 254.042L166.093 254.056C165.939 253.93 165.799 253.79 165.658 253.635C165.504 253.509 165.364 253.369 165.237 253.214C165.083 253.088 164.943 252.947 164.816 252.793C164.662 252.667 164.522 252.526 164.395 252.372C164.241 252.246 164.101 252.105 163.974 251.951C163.82 251.824 163.68 251.684 163.553 251.53L163.567 251.544C163.413 251.417 163.273 251.277 163.146 251.109L163.16 251.123C162.992 250.996 162.852 250.856 162.725 250.687L162.739 250.702C162.571 250.575 162.431 250.435 162.304 250.266L162.318 250.28C162.15 250.168 161.996 250.014 161.883 249.845L161.897 249.859C161.645 249.536 161.35 249.256 161.041 249.003L161.055 249.031C160.873 248.919 160.732 248.778 160.62 248.596L160.648 248.61C160.269 248.259 160.101 247.754 159.764 247.375C159.624 247.234 159.483 247.094 159.357 246.94L159.371 246.954C159.203 246.827 159.062 246.687 158.936 246.533L158.95 246.547C158.796 246.42 158.641 246.28 158.529 246.111L158.543 246.125C158.122 245.564 157.645 245.045 157.266 244.455C157.112 244.315 156.971 244.188 156.845 244.02L156.859 244.034C156.691 243.908 156.55 243.767 156.424 243.599L156.438 243.613C156.073 243.248 155.891 242.757 155.568 242.364C155.414 242.223 155.273 242.097 155.161 241.914L155.175 241.928C154.754 241.367 154.263 240.862 153.898 240.244V240.258C153.729 240.132 153.589 239.991 153.477 239.809L153.505 239.823C153.21 239.626 153.294 239.219 153.056 238.995C152.901 238.854 152.747 238.728 152.649 238.545L152.677 238.559C152.382 238.377 152.48 237.956 152.214 237.759L152.2 237.731C152.073 237.577 151.947 237.437 151.807 237.296C151.652 237.156 151.498 237.029 151.4 236.847L151.428 236.861C151.133 236.65 151.217 236.257 150.979 236.019L150.993 236.033C150.656 235.64 150.431 235.177 150.151 234.755L150.165 234.769C149.814 234.39 149.617 233.913 149.309 233.506V233.52C149.056 233.31 149.14 232.903 148.86 232.706L148.846 232.692C148.733 232.538 148.565 232.411 148.467 232.243L148.481 232.257C148.2 232.046 148.27 231.653 148.032 231.415V231.429C147.779 231.218 147.863 230.811 147.597 230.6V230.586C147.47 230.432 147.316 230.306 147.204 230.137L147.218 230.151C146.951 229.941 147.021 229.548 146.783 229.309C146.53 229.084 146.614 228.691 146.347 228.481C146.207 228.341 146.053 228.2 145.955 228.032L145.983 228.046C145.688 227.835 145.758 227.442 145.548 227.189L145.562 227.203C145.267 226.993 145.337 226.6 145.127 226.347L145.141 226.361C144.86 226.151 144.93 225.758 144.691 225.519V225.533C144.439 225.308 144.509 224.915 144.27 224.691V224.705C144.018 224.48 144.088 224.087 143.849 223.863V223.877C143.597 223.652 143.667 223.259 143.428 223.034V223.049C143.162 222.824 143.232 222.431 143.007 222.192L143.021 222.206C142.755 221.982 142.825 221.589 142.6 221.35L142.614 221.364C142.334 221.154 142.418 220.761 142.179 220.522V220.536C141.913 220.311 141.983 219.918 141.772 219.666L141.786 219.68C141.351 219.371 141.73 218.753 141.337 218.43C141.099 218.192 141.169 217.813 140.93 217.574L140.944 217.588C140.678 217.364 140.748 216.985 140.537 216.718L140.551 216.732C140.257 216.507 140.313 216.1 140.13 215.819C140.144 215.693 140.13 215.581 140.074 215.483C139.85 215.244 139.92 214.865 139.695 214.64L139.709 214.654C139.302 214.332 139.667 213.728 139.274 213.405C139.036 213.138 139.078 212.759 138.895 212.479C138.923 212.366 138.895 212.254 138.853 212.142C138.601 211.889 138.671 211.496 138.474 211.229C138.488 211.117 138.474 210.991 138.432 210.892C138.194 210.654 138.278 210.275 138.039 210.036L138.053 210.05C137.646 209.727 137.997 209.124 137.618 208.787C137.239 208.45 137.576 207.86 137.197 207.524C136.818 207.173 137.141 206.597 136.79 206.246L136.804 206.26C136.299 205.783 136.818 205.053 136.369 204.576L136.383 204.59C135.99 204.225 136.285 203.649 135.976 203.256C136.004 203.144 135.99 203.032 135.948 202.933C135.555 202.597 135.906 202.007 135.527 201.656V201.67C135.148 201.291 135.443 200.716 135.134 200.323C135.162 200.21 135.162 200.098 135.106 200C134.643 199.494 135.12 198.778 134.699 198.259C134.727 198.133 134.713 198.02 134.671 197.894C134.236 197.389 134.685 196.673 134.278 196.154C134.306 196.027 134.306 195.915 134.25 195.803C133.759 195.171 134.334 194.329 133.843 193.697V193.711C133.296 192.939 133.941 191.956 133.422 191.184L133.436 191.198C132.875 190.426 133.534 189.444 133.001 188.672V188.686C132.426 187.465 133.127 186.103 132.58 184.896C132.608 184.77 132.594 184.629 132.566 184.503C132.019 182.846 132.706 181.078 132.173 179.421C132.173 176.249 132.173 173.091 132.187 169.918C132.748 168.837 131.92 167.56 132.678 166.493C134.643 167.813 136.608 169.132 138.615 170.396C141.969 172.515 145.211 174.803 148.537 176.965C154.375 180.755 160.227 184.531 166.093 188.265C172.437 192.307 178.794 196.308 185.166 200.294C188.408 202.33 191.692 204.295 194.962 206.274C195.284 206.541 195.635 206.766 195.86 207.131Z" fill="#92B4FF"/>
<path d="M108.203 352.259C108.175 352.372 108.175 352.498 108.217 352.61C108.568 354.576 108.568 356.527 108.217 358.492C108.175 358.604 108.161 358.717 108.203 358.829C107.796 359.348 108.245 360.064 107.81 360.583C107.417 360.92 107.754 361.496 107.417 361.833C107.361 361.945 107.347 362.057 107.375 362.184C107.038 362.563 107.361 363.152 106.954 363.503L106.968 363.489C106.757 363.742 106.813 364.121 106.561 364.359C106.308 364.584 106.392 364.949 106.182 365.188C106.126 365.286 106.098 365.398 106.112 365.524C105.929 365.805 105.985 366.212 105.677 366.437L105.705 366.409C105.593 366.591 105.438 366.718 105.298 366.858V366.844C105.059 367.069 105.143 367.476 104.849 367.686L104.877 367.658C104.764 367.827 104.61 367.953 104.484 368.121V368.135C104.217 368.346 104.301 368.753 104.021 368.949L104.049 368.935C103.936 369.104 103.782 369.244 103.642 369.385C103.235 369.96 102.786 370.508 102.337 371.041L102.365 371.027C102.252 371.209 102.112 371.35 101.93 371.462L101.944 371.448C101.831 371.631 101.677 371.771 101.509 371.883L101.523 371.869C101.41 372.052 101.256 372.192 101.088 372.304L101.102 372.276C100.554 372.711 100.021 373.175 99.4456 373.568C99.3052 373.708 99.1649 373.862 99.0105 373.975L99.0245 373.961C98.6316 374.298 98.1685 374.522 97.7615 374.803L97.7755 374.789C97.3825 375.126 96.9335 375.35 96.4984 375.631L96.5124 375.617C96.3019 375.898 95.909 375.828 95.6564 376.052L95.6704 376.038C95.4458 376.319 95.0529 376.249 94.8143 376.473L94.8284 376.459C94.6038 376.726 94.2109 376.67 93.9723 376.88L93.9863 376.866C93.6635 377.288 93.0601 376.923 92.7373 377.316C92.4004 377.695 91.811 377.344 91.4882 377.737C91.1233 378.102 90.5479 377.793 90.1831 378.144H89.9866L89.7901 378.186C89.3971 378.509 88.8498 378.242 88.4569 378.537C88.2043 378.551 87.9516 378.565 87.7131 378.579C85.201 378.888 82.6889 378.916 80.1768 378.565C79.9241 378.551 79.6856 378.537 79.433 378.523C79.04 378.214 78.4646 378.495 78.0857 378.144L77.9173 378.102L77.7488 378.116C77.3559 377.793 76.7945 378.088 76.4156 377.709H76.4297C76.0928 377.33 75.5034 377.681 75.1666 377.273L75.1806 377.288C74.8438 376.909 74.2403 377.273 73.9175 376.838L73.9316 376.852C73.679 376.642 73.286 376.712 73.0755 376.417L73.0895 376.431C72.8369 376.221 72.444 376.291 72.2335 376.01L72.2475 376.024C72.0089 375.8 71.6019 375.87 71.4055 375.575L71.4195 375.603C71.2511 375.505 71.1107 375.336 70.9564 375.21C70.7458 374.943 70.3389 375.042 70.1283 374.761L70.1424 374.775C69.974 374.663 69.8477 374.508 69.6933 374.396L69.6792 374.382C69.4828 374.101 69.0618 374.199 68.8793 373.905L68.8933 373.933C68.7109 373.82 68.5706 373.666 68.4443 373.512L68.4583 373.526C68.2899 373.399 68.1495 373.259 68.0232 373.104C66.7321 372.15 65.6234 371.027 64.6691 369.75C64.5287 369.609 64.3744 369.469 64.2621 369.3L64.2902 369.314C64.0095 369.132 64.1077 368.711 63.813 368.528L63.799 368.5C63.7007 368.332 63.5323 368.206 63.4341 368.051L63.4481 368.065C63.2797 367.939 63.1253 367.798 63.0271 367.616L63.0552 367.63C62.7604 367.433 62.8447 367.026 62.6061 366.788L62.6201 366.802C62.3534 366.577 62.4236 366.184 62.185 365.96V365.974C61.9324 365.749 62.0026 365.356 61.764 365.117L61.7781 365.131C61.5114 364.893 61.5675 364.5 61.3711 364.219C61.3851 364.093 61.357 363.98 61.3009 363.868C61.0904 363.629 61.1606 363.264 60.936 363.026L60.95 363.04C60.6834 362.801 60.7395 362.408 60.5431 362.128C60.5571 362.015 60.5431 361.889 60.501 361.777C60.1501 361.398 60.4448 360.836 60.122 360.457C60.1501 360.331 60.1361 360.218 60.094 360.106C59.6309 359.446 60.1641 358.604 59.701 357.944C59.687 357.551 59.687 357.144 59.673 356.751C59.3642 355.909 59.3502 355.081 59.673 354.239C59.673 353.972 59.687 353.719 59.687 353.453C60.1922 352.652 59.5747 351.684 60.094 350.884C60.1361 350.772 60.1501 350.659 60.122 350.547C60.4448 350.154 60.1501 349.592 60.501 349.213C60.5571 349.115 60.5711 349.003 60.5431 348.891C60.7255 348.596 60.6694 348.203 60.95 347.964L60.936 347.978C61.1606 347.74 61.0904 347.361 61.3149 347.122C61.3711 347.024 61.3851 346.911 61.3711 346.799C61.5535 346.504 61.4974 346.111 61.7781 345.873L61.764 345.887C61.9886 345.648 61.9184 345.255 62.1991 345.03L62.185 345.044C62.4096 344.806 62.3394 344.413 62.6201 344.188L62.6061 344.202C62.8868 343.781 63.1113 343.304 63.4622 342.925L63.4341 342.939C63.5463 342.77 63.7007 342.644 63.827 342.49V342.476C64.0937 342.265 63.9954 341.858 64.2902 341.661L64.2621 341.69C64.3744 341.507 64.5287 341.381 64.6831 341.24L64.6691 341.254C65.6094 339.963 66.7321 338.84 68.0373 337.9L68.0232 337.914C68.1495 337.759 68.2899 337.605 68.4723 337.492L68.4583 337.507C68.5706 337.324 68.7109 337.184 68.8933 337.071L68.8793 337.099C69.0758 336.791 69.4828 336.889 69.6933 336.636C69.8336 336.496 69.974 336.341 70.1424 336.229L70.1143 336.257C70.3108 335.962 70.7178 336.047 70.9564 335.808L70.9423 335.822C71.1528 335.555 71.5598 335.64 71.7703 335.373C71.9247 335.247 72.051 335.092 72.2335 334.98L72.2054 335.008C72.5141 334.559 73.1316 334.952 73.4404 334.545C73.679 334.32 74.0579 334.39 74.2824 334.138C74.521 333.899 74.8999 333.955 75.1526 333.745L75.1245 333.759C75.4473 333.323 76.0507 333.674 76.4016 333.323L76.3735 333.338C76.8366 332.832 77.5804 333.352 78.0576 332.888L78.0436 332.902C78.6891 332.383 79.5452 332.959 80.1908 332.481C80.3171 332.509 80.4294 332.509 80.5416 332.467C82.7731 332.116 85.0045 332.158 87.2499 332.453C87.3762 332.495 87.4885 332.509 87.6148 332.481C88.2744 332.959 89.1165 332.383 89.7761 332.888C89.8743 332.93 89.9866 332.945 90.0989 332.916C90.4918 333.225 91.0812 332.93 91.4461 333.323L91.4321 333.309C91.7829 333.674 92.3724 333.323 92.7092 333.745L92.6952 333.731C92.9478 333.941 93.3267 333.885 93.5653 334.124C93.8881 334.531 94.5056 334.152 94.8003 334.587L94.7722 334.573C95.0248 334.783 95.4178 334.713 95.6283 335.008L95.6002 334.994C96.0493 335.247 96.4844 335.513 96.8913 335.808C97.1019 336.061 97.5229 335.976 97.7194 336.271L97.6913 336.243C97.8597 336.355 98 336.51 98.1404 336.636C98.3509 336.903 98.7579 336.805 98.9684 337.099L98.9403 337.071C99.1087 337.184 99.2631 337.338 99.3894 337.492L99.3754 337.478C99.5298 337.605 99.6701 337.745 99.8245 337.886C100.203 338.236 100.709 338.391 101.059 338.77L101.045 338.742C101.228 338.854 101.368 338.994 101.481 339.177L101.466 339.163C101.649 339.275 101.789 339.416 101.902 339.598L101.873 339.584C102.407 340.314 103.122 340.889 103.586 341.676L103.572 341.661C103.726 341.788 103.88 341.928 103.993 342.111L103.965 342.083C104.259 342.279 104.175 342.686 104.428 342.911C104.568 343.051 104.722 343.192 104.835 343.36L104.807 343.332C105.101 343.542 105.031 343.935 105.256 344.174L105.242 344.16C105.522 344.371 105.424 344.778 105.691 344.974V344.988C105.915 345.227 105.845 345.606 106.098 345.816V345.83C106.322 346.069 106.252 346.448 106.505 346.673C106.757 346.925 106.715 347.318 106.898 347.599C106.87 347.711 106.884 347.824 106.94 347.936C107.192 348.189 107.122 348.582 107.319 348.862C107.291 348.975 107.305 349.087 107.361 349.199C107.726 349.55 107.389 350.126 107.768 350.477L107.754 350.463C108.259 351.024 107.796 351.74 108.203 352.259Z" fill="#78F0F9"/>
<path d="M402.764 11.1454C402.736 11.2577 402.764 11.3559 402.821 11.4402C403.171 11.7911 402.849 12.3666 403.213 12.7175L403.199 12.7035C403.719 13.3632 403.157 14.2195 403.606 14.8792C403.606 15.932 403.606 16.9848 403.606 18.0516C403.171 18.7254 403.719 19.5816 403.199 20.2414L403.213 20.2274C402.863 20.5783 403.185 21.1538 402.806 21.5047C402.414 22.1645 402.357 22.9505 401.936 23.5962L401.95 23.5682C401.74 23.8208 401.81 24.2139 401.515 24.4244L401.529 24.3964C401.277 24.8455 401.038 25.2947 400.687 25.6878L400.701 25.6737C400.336 26.2914 399.859 26.8107 399.41 27.3582L399.438 27.3441C399.326 27.5266 399.186 27.681 399.003 27.7933L399.017 27.7793C398.905 27.9618 398.765 28.1021 398.582 28.2144L398.596 28.2004C398.484 28.3829 398.344 28.5373 398.147 28.6355L398.161 28.6075C397.81 29.0005 397.319 29.1689 396.926 29.4918C396.786 29.6462 396.66 29.8006 396.477 29.8989L396.491 29.8708C395.874 30.4463 395.046 30.6709 394.386 31.1482L394.4 31.1341C394.19 31.4289 393.797 31.3587 393.544 31.5693L393.558 31.5552C393.235 31.9904 392.646 31.6395 392.295 32.0044L392.309 31.9904C391.972 32.3975 391.383 32.0606 391.032 32.4115L391.046 32.3975C390.569 32.8888 389.853 32.3975 389.348 32.8186L389.362 32.8045C387.271 33.1976 385.18 33.2116 383.103 32.8045L383.117 32.8186C382.625 32.3975 381.896 32.9028 381.419 32.3975L381.433 32.4115C381.082 32.0606 380.492 32.4115 380.155 31.9904L380.17 32.0044C379.496 31.6675 378.71 31.5833 378.064 31.1341L378.092 31.1482C377.643 30.9095 377.208 30.6428 376.801 30.334C376.577 30.0814 376.17 30.1796 375.973 29.8708L376.001 29.8989C375.819 29.8006 375.679 29.6462 375.552 29.4778L375.566 29.4918C374.949 29.1268 374.43 28.6636 373.896 28.2004L373.91 28.2285C373.728 28.1302 373.573 27.9758 373.475 27.7933L373.503 27.8074C373.11 27.4705 372.942 26.9651 372.605 26.5721C372.465 26.4317 372.31 26.2914 372.198 26.1229L372.212 26.1369C372.03 26.0246 371.889 25.8702 371.777 25.6878L371.805 25.7158C371.496 25.5193 371.595 25.1122 371.342 24.8876C371.202 24.7473 371.033 24.6069 370.949 24.4244L370.977 24.4525C370.514 24.1718 370.921 23.5401 370.486 23.2313L370.472 23.2172C370.261 22.9646 370.318 22.5996 370.093 22.361L370.107 22.375C369.84 22.1504 369.897 21.7714 369.7 21.5047L369.714 21.5328C369.265 21.1819 369.588 20.5783 369.279 20.1852C369.321 20.087 369.307 19.9887 369.251 19.8905C368.872 17.6586 368.928 15.4127 369.237 13.1808C369.293 13.0825 369.307 12.9702 369.265 12.8579C369.574 12.4649 369.265 11.8753 369.686 11.5104L369.672 11.5384C369.883 11.2858 369.826 10.9068 370.065 10.6681C370.458 10.3453 370.079 9.72765 370.528 9.41883L370.514 9.44691C370.725 9.19424 370.654 8.8012 370.949 8.59065L370.921 8.61872C371.019 8.43624 371.174 8.30991 371.3 8.1555V8.14146C371.567 7.93091 371.482 7.52384 371.763 7.32732L371.735 7.34135C371.847 7.17291 372.002 7.03254 372.156 6.89217L372.142 6.9062C372.282 6.76583 372.409 6.61143 372.535 6.47106L372.549 6.45702C372.914 6.10609 373.068 5.58672 373.447 5.2358L373.419 5.24984C373.531 5.06736 373.672 4.92698 373.854 4.81469L373.84 4.82872C373.952 4.64624 374.093 4.50587 374.289 4.39358L374.275 4.42165C374.612 4.02862 375.117 3.86017 375.51 3.53732C375.651 3.39695 375.791 3.24254 375.959 3.13024L375.931 3.15832C376.114 2.86354 376.535 2.9618 376.731 2.69509L376.759 2.68106C376.914 2.56876 377.04 2.40032 377.222 2.30206L377.194 2.33013C377.405 2.03535 377.798 2.10554 378.05 1.89498L378.036 1.90902C378.247 1.61424 378.64 1.68443 378.892 1.47387L378.878 1.48791C379.187 1.05276 379.791 1.43176 380.127 1.03873C380.478 0.673764 381.04 0.996615 381.39 0.631652C381.882 0.16843 382.597 0.659727 383.089 0.210542C383.229 0.238616 383.355 0.224575 383.482 0.168427C385.292 -0.126351 387.102 -0.112314 388.899 0.168427C389.039 0.224575 389.165 0.238616 389.306 0.210542C389.797 0.659727 390.513 0.182464 391.004 0.617612C391.102 0.67376 391.214 0.687801 391.327 0.659727C391.607 0.842208 391.986 0.786058 392.253 1.02469C392.351 1.08084 392.449 1.10891 392.562 1.08084C392.87 1.24928 393.263 1.19313 393.502 1.48791L393.572 1.40369C393.825 1.62828 394.204 1.55809 394.428 1.8248L394.414 1.81076C394.653 2.03536 395.06 1.96517 395.256 2.24591L395.242 2.23187C395.495 2.44243 395.888 2.37224 396.084 2.68106L396.056 2.65298C396.239 2.75124 396.379 2.90565 396.505 3.07409L396.491 3.06006C396.645 3.17235 396.772 3.32676 396.94 3.43906L396.968 3.45309C397.319 3.81806 397.824 3.97247 398.189 4.33743L398.175 4.32339C398.344 4.43569 398.484 4.59009 398.61 4.75854L398.596 4.7445C398.765 4.87084 398.905 5.0112 399.031 5.17965L399.017 5.16561C399.186 5.29195 399.34 5.43232 399.438 5.6148L399.41 5.60076C399.593 5.71306 399.747 5.85343 399.845 6.04995L399.817 6.03591C400.21 6.3728 400.379 6.87813 400.715 7.27117C400.856 7.41154 401.024 7.55191 401.122 7.73439L401.094 7.70632C401.403 7.90284 401.319 8.30991 401.543 8.56257L401.529 8.54854C401.824 8.7591 401.74 9.15213 401.978 9.39076L401.964 9.37673C402.231 9.60132 402.175 9.98032 402.371 10.247L402.357 10.2189C402.666 10.4435 402.61 10.8366 402.764 11.1454Z" fill="#C874D6"/>
<path d="M406.582 43.2762C406.652 43.3604 406.75 43.3885 406.862 43.3464C407.185 43.4868 407.578 43.4587 407.845 43.7394L407.831 43.7254C408.069 43.95 408.476 43.8798 408.687 44.1746L408.659 44.1605C409.094 44.4272 409.571 44.6518 409.936 45.0168L409.908 44.9887C410.09 45.101 410.231 45.2554 410.357 45.4098L410.343 45.3958C410.511 45.5221 410.652 45.6625 410.778 45.8309L410.764 45.8169C410.932 45.9432 411.087 46.0836 411.199 46.2661L411.171 46.238C411.353 46.3643 411.508 46.5047 411.592 46.7153L411.55 46.6732C411.887 46.8276 411.788 47.2627 412.055 47.4733C412.181 47.6277 412.364 47.754 412.434 47.9646L412.392 47.9225C412.743 48.1611 412.687 48.5682 412.827 48.905C412.785 49.0033 412.799 49.0875 412.897 49.1577C413.234 49.5648 412.981 50.1122 413.262 50.5333C413.206 50.6456 413.22 50.7439 413.304 50.8281C413.599 51.8107 413.655 52.7933 413.276 53.7759C413.192 53.8461 413.178 53.9303 413.248 54.0286C412.981 54.4637 413.262 55.0533 412.827 55.4323L412.841 55.4042C412.644 55.6709 412.701 56.0499 412.448 56.2885C412.195 56.4991 412.294 56.9342 411.943 57.1027L411.985 57.0606C411.915 57.2711 411.746 57.4115 411.592 57.5519L411.606 57.5378C411.073 58.3941 410.357 59.0819 409.515 59.6434C409.36 59.7837 409.234 59.9522 409.024 60.0224L409.066 59.9803C408.883 60.3172 408.462 60.2329 408.224 60.4575L408.238 60.4435C407.999 60.7242 407.606 60.6681 407.325 60.8646H407.143L406.975 60.9488C406.694 61.1313 406.343 61.1032 406.062 61.2857L405.88 61.2717L405.712 61.3419C404.182 61.5945 402.638 61.6788 401.108 61.2857L401.122 61.2997C400.772 60.9488 400.196 61.2576 399.845 60.8927C399.621 60.64 399.242 60.7102 399.003 60.4996L398.989 60.4856C398.793 60.2049 398.386 60.3031 398.175 60.0364L398.189 60.0505C397.965 59.8118 397.53 59.9101 397.361 59.5451L397.403 59.5872C397.179 59.517 397.038 59.3626 396.926 59.1661L396.954 59.1942C396.758 59.0819 396.617 58.9415 396.505 58.759L396.533 58.7871C396.351 58.6748 396.196 58.5204 396.098 58.3379L396.126 58.366C395.93 58.2537 395.761 58.1133 395.705 57.8747L395.747 57.9168C395.298 57.608 395.116 57.1027 394.849 56.6675L394.877 56.6956C394.568 56.485 394.639 56.092 394.442 55.8253L394.47 55.8674C394.007 55.5446 394.358 54.941 394.021 54.576L394.035 54.6181C393.6 53.0881 393.656 51.558 393.993 50.014C394.077 49.9438 394.091 49.8596 394.035 49.7613C394.161 49.4385 394.162 49.0454 394.414 48.7647V48.7787C394.653 48.5401 394.583 48.1611 394.807 47.9225V47.9084C395.074 47.7119 394.975 47.2768 395.284 47.1083L395.256 47.1364C395.354 46.9399 395.509 46.8135 395.663 46.6732L395.649 46.6872C395.789 46.5468 395.902 46.3924 396.014 46.238L396.042 46.2099C396.407 45.7467 396.8 45.3256 397.291 44.9887L397.305 44.9747C397.474 44.8624 397.6 44.6939 397.782 44.5957L397.754 44.6238C397.937 44.329 398.358 44.4132 398.568 44.1465C398.737 43.978 398.919 43.8096 399.172 43.7815C399.27 43.8236 399.354 43.7956 399.41 43.6973C399.677 43.4727 400.042 43.5289 400.322 43.3324C400.449 43.3745 400.575 43.3464 400.673 43.2622C401.066 42.9674 401.6 43.2341 401.978 42.9112C402.105 42.9533 402.231 42.9533 402.343 42.8691C403.031 42.5743 403.733 42.5884 404.42 42.8551C404.659 42.8832 404.912 42.8972 405.15 42.9253C405.627 43.206 406.189 42.9533 406.582 43.2762Z" fill="#EF5467"/>
<path d="M245.274 287.647C245.681 287.114 246.27 287.24 246.818 287.226C249.891 287.212 252.95 287.226 256.024 287.226C256.852 287.226 257.694 287.296 258.494 286.945C258.747 286.833 259.041 286.791 259.308 286.819C261.202 287.001 263.055 286.594 264.893 286.327C268.865 285.766 272.837 285.176 276.738 284.194C280.499 283.239 284.261 282.285 287.966 281.12C291.207 280.095 294.393 278.86 297.551 277.596C300.652 276.361 303.684 274.986 306.743 273.652C307.094 273.498 307.389 273.399 307.669 273.736C305.382 275.084 302.982 276.207 300.568 277.302C296.625 279.084 292.569 280.572 288.471 281.934C286.759 282.509 285.004 282.945 283.264 283.464C283.011 283.534 282.773 283.703 282.534 283.829C282.169 284.236 281.594 283.927 281.201 284.25L281.033 284.236L280.864 284.278C280.387 284.741 279.657 284.25 279.18 284.699C278.689 285.162 277.987 284.685 277.496 285.106L277.51 285.092C276.893 285.64 276.037 285.036 275.419 285.527C274.787 286.033 273.945 285.457 273.314 285.948C272.542 286.51 271.574 285.85 270.802 286.37C270.03 286.917 269.062 286.271 268.276 286.791C267.335 287.366 266.227 286.692 265.286 287.198L265.104 287.184L264.936 287.226C263.701 287.773 262.353 287.1 261.118 287.633L260.936 287.619L260.753 287.647C258.845 288.11 256.908 287.731 254.985 287.872C254.242 287.928 253.456 287.689 252.74 288.054C251.379 288.054 250.017 288.054 248.656 288.054C247.575 287.521 246.354 288.194 245.274 287.647Z" fill="#91B9FF"/>
<path d="M348.34 178.327C348.34 176.586 348.34 175.337 348.34 174.073C348.34 173.301 348.382 172.543 348.102 171.799C347.989 171.476 347.933 171.111 347.961 170.775C348.172 168.529 347.624 166.339 347.456 164.121C347.245 161.496 346.712 158.899 346.221 156.316C345.73 153.72 345.154 151.151 344.523 148.582C343.99 146.42 343.288 144.301 342.684 142.167C342.418 141.199 342.572 140.89 343.456 140.567C344.439 140.216 345.449 139.935 346.432 139.598C346.923 139.43 347.288 139.584 347.428 140.048C348.186 142.574 349.07 145.073 349.631 147.656C350.052 149.621 350.459 151.6 350.951 153.551C351.498 155.713 351.68 157.931 352.171 160.092C352.536 161.735 352.368 163.419 352.873 165.033C353.056 165.609 352.943 166.283 352.957 166.914C352.971 167.686 352.943 168.444 353.21 169.188C353.519 170.059 353.336 170.985 353.378 171.898C353.435 173.217 353.463 174.522 353.673 175.842C353.926 177.47 353.982 179.183 353.575 180.825C353.505 181.092 353.406 181.373 353.42 181.639C353.547 184.012 353.196 186.356 352.957 188.714C352.817 190.09 352.691 191.479 352.466 192.855C351.793 197.122 350.642 201.277 349.252 205.348C348.733 206.864 348.059 208.31 347.428 209.784C347.288 210.12 347.007 210.387 346.6 210.219C345.435 209.741 344.284 209.264 343.148 208.731C342.586 208.464 342.488 208.113 342.713 207.524C343.316 205.965 344.018 204.435 344.523 202.849C345.589 199.396 346.642 195.957 347.147 192.35C347.484 189.879 347.765 187.394 348.017 184.91C348.242 182.566 348.298 180.207 348.34 178.327Z" fill="#8D98F7"/>
<path d="M337.394 228.734C337.197 228.677 337.043 228.677 336.945 228.607C336.032 227.863 335.106 227.133 334.222 226.347C333.646 225.842 333.661 225.561 334.039 224.887C334.138 224.705 334.222 224.508 334.362 224.354C336.088 222.459 337.801 220.55 339.569 218.683C340.214 217.995 340.285 218.023 341.141 218.599C341.66 218.95 342.179 219.301 342.628 219.722C343.091 220.143 343.681 220.564 343.835 221.111C344.018 221.757 343.204 222.08 342.839 222.557C341.309 224.536 339.737 226.46 337.969 228.228C337.787 228.425 337.562 228.579 337.394 228.734Z" fill="#8D98F7"/>
<path d="M328.285 260.317C327.794 260.148 327.289 260.022 326.952 259.573C327.668 259.503 328.342 259.236 328.819 258.717C330.643 256.695 333.001 255.235 334.769 253.186C336.636 251.038 338.685 249.059 340.579 246.954C342.193 245.157 343.597 243.164 345.14 241.297C347.442 238.503 349.449 235.513 351.414 232.481C352.761 230.376 354.164 228.312 355.287 226.052C355.806 225.014 356.326 223.947 357.196 223.119C357.168 224.312 356.494 225.323 356.283 226.46C354.263 230.937 351.484 234.952 348.691 238.967C343.653 246.21 337.59 252.568 331.036 258.464C330.222 259.194 329.394 259.98 328.285 260.317Z" fill="#92B9FF"/>
</g>
<defs>
<clipPath id="clip0">
<rect width="494" height="379" fill="white"/>
</clipPath>
</defs>
</svg>
